999
dxflib 3.12.2.0
  0
SECTION
  2
HEADER
  9
$ACADVER
  1
AC1015
  9
$HANDSEED
  5
FFFF
  9
$DIMADEC
 70
0
  9
$DIMASZ
 40
2.5
  9
$DIMAUNIT
 70
0
  9
$DIMAZIN
 70
2
  9
$DIMDEC
 70
4
  9
$DIMEXE
 40
1.25
  9
$DIMEXO
 40
0.625
  9
$DIMGAP
 40
0.625
  9
$DIMLUNIT
 70
2
  9
$DIMSCALE
 40
1.0
  9
$DIMTSZ
 40
0.0
  9
$DIMTXT
 40
2.5
  9
$DIMZIN
 70
8
  9
$DWGCODEPAGE
  3
ANSI_1252
  9
$INSUNITS
 70
4
  9
$LTSCALE
 40
1.0
  9
$MEASUREMENT
 70
1
  9
$PDMODE
 70
32
  9
$PDSIZE
 40
0
  0
ENDSEC
  0
SECTION
  2
TABLES
  0
TABLE
  2
VPORT
  5
8
100
AcDbSymbolTable
 70
1
  0
VPORT
  5
30
100
AcDbSymbolTableRecord
100
AcDbViewportTableRecord
  2
*Active
 70
0
 10
0.0
 20
0.0
 11
1.0
 21
1.0
 12
286.3055555555554861
 22
148.5
 13
0.0
 23
0.0
 14
10.0
 24
10.0
 15
10.0
 25
10.0
 16
0.0
 26
0.0
 36
1.0
 17
0.0
 27
0.0
 37
0.0
 40
297.0
 41
1.92798353909465
 42
50.0
 43
0.0
 44
0.0
 50
0.0
 51
0.0
 71
0
 72
100
 73
1
 74
3
 75
1
 76
1
 77
0
 78
0
281
0
 65
1
110
0.0
120
0.0
130
0.0
111
1.0
121
0.0
131
0.0
112
0.0
122
1.0
132
0.0
 79
0
146
0.0
  0
ENDTAB
  0
TABLE
  2
LTYPE
  5
5
100
AcDbSymbolTable
 70
41
  0
LTYPE
  5
16
100
AcDbSymbolTableRecord
100
AcDbLinetypeTableRecord
  2
Continuous
 70
0
  3
Solid line
 72
65
 73
0
 40
0.0
  0
LTYPE
  5
31
100
AcDbSymbolTableRecord
100
AcDbLinetypeTableRecord
  2
ACAD_ISO15W100
 70
0
  3
ISO double-dash triple-dot __ __ . . . __ __ . .
 72
65
 73
10
 40
39.0
 49
12.0
 74
0
 49
-3.0
 74
0
 49
12.0
 74
0
 49
-3.0
 74
0
 49
0.0
 74
0
 49
-3.0
 74
0
 49
0.0
 74
0
 49
-3.0
 74
0
 49
0.0
 74
0
 49
-3.0
 74
0
  0
LTYPE
  5
32
100
AcDbSymbolTableRecord
100
AcDbLinetypeTableRecord
  2
DIVIDE
 70
0
  3
Divide ____ . . ____ . . ____ . . ____ . . ____
 72
65
 73
6
 40
31.75
 49
12.6999999999999993
 74
0
 49
-6.3499999999999996
 74
0
 49
0.0
 74
0
 49
-6.3499999999999996
 74
0
 49
0.0
 74
0
 49
-6.3499999999999996
 74
0
  0
LTYPE
  5
33
100
AcDbSymbolTableRecord
100
AcDbLinetypeTableRecord
  2
ACAD_ISO10W100
 70
0
  3
ISO dash dot __ . __ . __ . __ . __ . __ . __ . 
 72
65
 73
4
 40
18.0
 49
12.0
 74
0
 49
-3.0
 74
0
 49
0.0
 74
0
 49
-3.0
 74
0
  0
LTYPE
  5
34
100
AcDbSymbolTableRecord
100
AcDbLinetypeTableRecord
  2
ACAD_ISO04W100
 70
0
  3
ISO long-dash dot ____ . ____ . ____ . ____ . _
 72
65
 73
4
 40
30.0
 49
24.0
 74
0
 49
-3.0
 74
0
 49
0.0
 74
0
 49
-3.0
 74
0
  0
LTYPE
  5
35
100
AcDbSymbolTableRecord
100
AcDbLinetypeTableRecord
  2
CENTER2
 70
0
  3
Center (.5x) ___ _ ___ _ ___ _ ___ _ ___ _ ___
 72
65
 73
4
 40
28.5750000000000028
 49
19.0500000000000007
 74
0
 49
-3.1749999999999998
 74
0
 49
3.1749999999999998
 74
0
 49
-3.1749999999999998
 74
0
  0
LTYPE
  5
36
100
AcDbSymbolTableRecord
100
AcDbLinetypeTableRecord
  2
ACAD_ISO11W100
 70
0
  3
ISO double-dash dot __ __ . __ __ . __ __ . __ _
 72
65
 73
6
 40
33.0
 49
12.0
 74
0
 49
-3.0
 74
0
 49
12.0
 74
0
 49
-3.0
 74
0
 49
0.0
 74
0
 49
-3.0
 74
0
  0
LTYPE
  5
37
100
AcDbSymbolTableRecord
100
AcDbLinetypeTableRecord
  2
HIDDEN2
 70
0
  3
Hidden (.5x) _ _ _ _ _ _ _ _ _ _ _ _ _ _ _ _ _ 
 72
65
 73
2
 40
4.7624999999999993
 49
3.1749999999999998
 74
0
 49
-1.5874999999999999
 74
0
  0
LTYPE
  5
38
100
AcDbSymbolTableRecord
100
AcDbLinetypeTableRecord
  2
BORDERX2
 70
0
  3
Border (2x) ____  ____  .  ____  ____  .  ___
 72
65
 73
6
 40
88.8999999999999915
 49
25.3999999999999986
 74
0
 49
-12.6999999999999993
 74
0
 49
25.3999999999999986
 74
0
 49
-12.6999999999999993
 74
0
 49
0.0
 74
0
 49
-12.6999999999999993
 74
0
  0
LTYPE
  5
39
100
AcDbSymbolTableRecord
100
AcDbLinetypeTableRecord
  2
ACAD_ISO05W100
 70
0
  3
ISO long-dash double-dot ____ .. ____ .. ____ . 
 72
65
 73
6
 40
33.0
 49
24.0
 74
0
 49
-3.0
 74
0
 49
0.0
 74
0
 49
-3.0
 74
0
 49
0.0
 74
0
 49
-3.0
 74
0
  0
LTYPE
  5
3A
100
AcDbSymbolTableRecord
100
AcDbLinetypeTableRecord
  2
DASHDOTX2
 70
0
  3
Dash dot (2x) ____  .  ____  .  ____  .  ___
 72
65
 73
4
 40
50.7999999999999972
 49
25.3999999999999986
 74
0
 49
-12.6999999999999993
 74
0
 49
0.0
 74
0
 49
-12.6999999999999993
 74
0
  0
LTYPE
  5
3B
100
AcDbSymbolTableRecord
100
AcDbLinetypeTableRecord
  2
HIDDENX2
 70
0
  3
Hidden (2x) ____ ____ ____ ____ ____ ____ ____ 
 72
65
 73
2
 40
19.0499999999999972
 49
12.6999999999999993
 74
0
 49
-6.3499999999999996
 74
0
  0
LTYPE
  5
3C
100
AcDbSymbolTableRecord
100
AcDbLinetypeTableRecord
  2
CENTERX2
 70
0
  3
Center (2x) ________  __  ________  __  _____
 72
65
 73
4
 40
101.6000000000000085
 49
63.5
 74
0
 49
-12.6999999999999993
 74
0
 49
12.6999999999999993
 74
0
 49
-12.6999999999999993
 74
0
  0
LTYPE
  5
3D
100
AcDbSymbolTableRecord
100
AcDbLinetypeTableRecord
  2
BORDER2
 70
0
  3
Border (.5x) __.__.__.__.__.__.__.__.__.__.__.
 72
65
 73
6
 40
22.2249999999999979
 49
6.3499999999999996
 74
0
 49
-3.1749999999999998
 74
0
 49
6.3499999999999996
 74
0
 49
-3.1749999999999998
 74
0
 49
0.0
 74
0
 49
-3.1749999999999998
 74
0
  0
LTYPE
  5
3E
100
AcDbSymbolTableRecord
100
AcDbLinetypeTableRecord
  2
DASHDOT2
 70
0
  3
Dash dot (.5x) _._._._._._._._._._._._._._._.
 72
65
 73
4
 40
12.6999999999999993
 49
6.3499999999999996
 74
0
 49
-3.1749999999999998
 74
0
 49
0.0
 74
0
 49
-3.1749999999999998
 74
0
  0
LTYPE
  5
3F
100
AcDbSymbolTableRecord
100
AcDbLinetypeTableRecord
  2
ACAD_ISO12W100
 70
0
  3
ISO dash double-dot __ . . __ . . __ . . __ . . 
 72
65
 73
6
 40
21.0
 49
12.0
 74
0
 49
-3.0
 74
0
 49
0.0
 74
0
 49
-3.0
 74
0
 49
0.0
 74
0
 49
-3.0
 74
0
  0
LTYPE
  5
40
100
AcDbSymbolTableRecord
100
AcDbLinetypeTableRecord
  2
ACAD_ISO07W100
 70
0
  3
ISO dot . . . . . . . . . . . . . . . . . . . . 
 72
65
 73
2
 40
3.0
 49
0.0
 74
0
 49
-3.0
 74
0
  0
LTYPE
  5
41
100
AcDbSymbolTableRecord
100
AcDbLinetypeTableRecord
  2
HIDDEN
 70
0
  3
Hidden __ __ __ __ __ __ __ __ __ __ __ __ __ __
 72
65
 73
2
 40
9.5249999999999986
 49
6.3499999999999996
 74
0
 49
-3.1749999999999998
 74
0
  0
LTYPE
  5
42
100
AcDbSymbolTableRecord
100
AcDbLinetypeTableRecord
  2
ACAD_ISO06W100
 70
0
  3
ISO long-dash triple-dot ____ ... ____ ... ____
 72
65
 73
8
 40
36.0
 49
24.0
 74
0
 49
-3.0
 74
0
 49
0.0
 74
0
 49
-3.0
 74
0
 49
0.0
 74
0
 49
-3.0
 74
0
 49
0.0
 74
0
 49
-3.0
 74
0
  0
LTYPE
  5
43
100
AcDbSymbolTableRecord
100
AcDbLinetypeTableRecord
  2
CENTER
 70
0
  3
Center ____ _ ____ _ ____ _ ____ _ ____ _ ____
 72
65
 73
4
 40
50.8000000000000043
 49
31.75
 74
0
 49
-6.3499999999999996
 74
0
 49
6.3499999999999996
 74
0
 49
-6.3499999999999996
 74
0
  0
LTYPE
  5
44
100
AcDbSymbolTableRecord
100
AcDbLinetypeTableRecord
  2
DOTX2
 70
0
  3
Dot (2x) .  .  .  .  .  .  .  .  .  .  .  .  .  .
 72
65
 73
2
 40
12.6999999999999993
 49
0.0
 74
0
 49
-12.6999999999999993
 74
0
  0
LTYPE
  5
45
100
AcDbSymbolTableRecord
100
AcDbLinetypeTableRecord
  2
PHANTOM
 70
0
  3
Phantom ______  __  __  ______  __  __  ______ 
 72
65
 73
6
 40
63.5000000000000071
 49
31.75
 74
0
 49
-6.3499999999999996
 74
0
 49
6.3499999999999996
 74
0
 49
-6.3499999999999996
 74
0
 49
6.3499999999999996
 74
0
 49
-6.3499999999999996
 74
0
  0
LTYPE
  5
46
100
AcDbSymbolTableRecord
100
AcDbLinetypeTableRecord
  2
ACAD_ISO08W100
 70
0
  3
ISO long-dash short-dash ____ __ ____ __ ____ _
 72
65
 73
4
 40
36.0
 49
24.0
 74
0
 49
-3.0
 74
0
 49
6.0
 74
0
 49
-3.0
 74
0
  0
LTYPE
  5
47
100
AcDbSymbolTableRecord
100
AcDbLinetypeTableRecord
  2
DASHEDX2
 70
0
  3
Dashed (2x) ____  ____  ____  ____  ____  ___
 72
65
 73
2
 40
38.0999999999999943
 49
25.3999999999999986
 74
0
 49
-12.6999999999999993
 74
0
  0
LTYPE
  5
48
100
AcDbSymbolTableRecord
100
AcDbLinetypeTableRecord
  2
ACAD_ISO02W100
 70
0
  3
ISO dash __ __ __ __ __ __ __ __ __ __ __ __ __
 72
65
 73
2
 40
15.0
 49
12.0
 74
0
 49
-3.0
 74
0
  0
LTYPE
  5
49
100
AcDbSymbolTableRecord
100
AcDbLinetypeTableRecord
  2
PHANTOM2
 70
0
  3
Phantom (.5x) ___ _ _ ___ _ _ ___ _ _ ___ _ _
 72
65
 73
6
 40
31.7500000000000036
 49
15.875
 74
0
 49
-3.1749999999999998
 74
0
 49
3.1749999999999998
 74
0
 49
-3.1749999999999998
 74
0
 49
3.1749999999999998
 74
0
 49
-3.1749999999999998
 74
0
  0
LTYPE
  5
4A
100
AcDbSymbolTableRecord
100
AcDbLinetypeTableRecord
  2
DASHED2
 70
0
  3
Dashed (.5x) _ _ _ _ _ _ _ _ _ _ _ _ _ _ _ _ _ 
 72
65
 73
2
 40
9.5249999999999986
 49
6.3499999999999996
 74
0
 49
-3.1749999999999998
 74
0
  0
LTYPE
  5
4B
100
AcDbSymbolTableRecord
100
AcDbLinetypeTableRecord
  2
ACAD_ISO09W100
 70
0
  3
ISO long-dash double-short-dash ____ __ __ ____
 72
65
 73
6
 40
45.0
 49
24.0
 74
0
 49
-3.0
 74
0
 49
6.0
 74
0
 49
-3.0
 74
0
 49
6.0
 74
0
 49
-3.0
 74
0
  0
LTYPE
  5
4C
100
AcDbSymbolTableRecord
100
AcDbLinetypeTableRecord
  2
ACAD_ISO13W100
 70
0
  3
ISO double-dash double-dot __ __ . . __ __ . . _
 72
65
 73
8
 40
36.0
 49
12.0
 74
0
 49
-3.0
 74
0
 49
12.0
 74
0
 49
-3.0
 74
0
 49
0.0
 74
0
 49
-3.0
 74
0
 49
0.0
 74
0
 49
-3.0
 74
0
  0
LTYPE
  5
4D
100
AcDbSymbolTableRecord
100
AcDbLinetypeTableRecord
  2
DOT2
 70
0
  3
Dot (.5x) ........................................
 72
65
 73
2
 40
3.1749999999999998
 49
0.0
 74
0
 49
-3.1749999999999998
 74
0
  0
LTYPE
  5
4E
100
AcDbSymbolTableRecord
100
AcDbLinetypeTableRecord
  2
DASHED
 70
0
  3
Dashed __ __ __ __ __ __ __ __ __ __ __ __ __ _
 72
65
 73
2
 40
19.0499999999999972
 49
12.6999999999999993
 74
0
 49
-6.3499999999999996
 74
0
  0
LTYPE
  5
4F
100
AcDbSymbolTableRecord
100
AcDbLinetypeTableRecord
  2
ACAD_ISO14W100
 70
0
  3
ISO dash triple-dot __ . . . __ . . . __ . . . _
 72
65
 73
8
 40
24.0
 49
12.0
 74
0
 49
-3.0
 74
0
 49
0.0
 74
0
 49
-3.0
 74
0
 49
0.0
 74
0
 49
-3.0
 74
0
 49
0.0
 74
0
 49
-3.0
 74
0
  0
LTYPE
  5
15
100
AcDbSymbolTableRecord
100
AcDbLinetypeTableRecord
  2
BYLAYER
 70
0
  3

 72
65
 73
0
 40
0.0
  0
LTYPE
  5
50
100
AcDbSymbolTableRecord
100
AcDbLinetypeTableRecord
  2
PHANTOMX2
 70
0
  3
Phantom (2x) ____________    ____    ____   _
 72
65
 73
6
 40
127.0000000000000142
 49
63.5
 74
0
 49
-12.6999999999999993
 74
0
 49
12.6999999999999993
 74
0
 49
-12.6999999999999993
 74
0
 49
12.6999999999999993
 74
0
 49
-12.6999999999999993
 74
0
  0
LTYPE
  5
14
100
AcDbSymbolTableRecord
100
AcDbLinetypeTableRecord
  2
BYBLOCK
 70
0
  3

 72
65
 73
0
 40
0.0
  0
LTYPE
  5
51
100
AcDbSymbolTableRecord
100
AcDbLinetypeTableRecord
  2
DIVIDEX2
 70
0
  3
Divide (2x) ________  .  .  ________  .  .  _
 72
65
 73
6
 40
63.5
 49
25.3999999999999986
 74
0
 49
-12.6999999999999993
 74
0
 49
0.0
 74
0
 49
-12.6999999999999993
 74
0
 49
0.0
 74
0
 49
-12.6999999999999993
 74
0
  0
LTYPE
  5
52
100
AcDbSymbolTableRecord
100
AcDbLinetypeTableRecord
  2
BORDER
 70
0
  3
Border __ __ . __ __ . __ __ . __ __ . __ __ .
 72
65
 73
6
 40
44.4499999999999957
 49
12.6999999999999993
 74
0
 49
-6.3499999999999996
 74
0
 49
12.6999999999999993
 74
0
 49
-6.3499999999999996
 74
0
 49
0.0
 74
0
 49
-6.3499999999999996
 74
0
  0
LTYPE
  5
53
100
AcDbSymbolTableRecord
100
AcDbLinetypeTableRecord
  2
DIVIDE2
 70
0
  3
Divide (.5x) __..__..__..__..__..__..__..__.._
 72
65
 73
6
 40
15.875
 49
6.3499999999999996
 74
0
 49
-3.1749999999999998
 74
0
 49
0.0
 74
0
 49
-3.1749999999999998
 74
0
 49
0.0
 74
0
 49
-3.1749999999999998
 74
0
  0
LTYPE
  5
54
100
AcDbSymbolTableRecord
100
AcDbLinetypeTableRecord
  2
DOT
 70
0
  3
Dot . . . . . . . . . . . . . . . . . . . . . . . .
 72
65
 73
2
 40
6.3499999999999996
 49
0.0
 74
0
 49
-6.3499999999999996
 74
0
  0
LTYPE
  5
55
100
AcDbSymbolTableRecord
100
AcDbLinetypeTableRecord
  2
DASHDOT
 70
0
  3
Dash dot __ . __ . __ . __ . __ . __ . __ . __
 72
65
 73
4
 40
25.3999999999999986
 49
12.6999999999999993
 74
0
 49
-6.3499999999999996
 74
0
 49
0.0
 74
0
 49
-6.3499999999999996
 74
0
  0
LTYPE
  5
56
100
AcDbSymbolTableRecord
100
AcDbLinetypeTableRecord
  2
ACAD_ISO03W100
 70
0
  3
ISO dash space __    __    __    __    __    __
 72
65
 73
2
 40
30.0
 49
12.0
 74
0
 49
-18.0
 74
0
  0
ENDTAB
  0
TABLE
  2
LAYER
  5
2
100
AcDbSymbolTable
 70
8
  0
LAYER
  5
57
100
AcDbSymbolTableRecord
100
AcDbLayerTableRecord
  2
Guide Cutout
 70
0
 62
214
420
8388736
  6
Continuous
370
5
390
F
  0
LAYER
  5
58
100
AcDbSymbolTableRecord
100
AcDbLayerTableRecord
  2
Fill
 70
0
 62
7
420
0
  6
Continuous
370
20
390
F
  0
LAYER
  5
59
100
AcDbSymbolTableRecord
100
AcDbLayerTableRecord
  2
Engrave
 70
0
 62
1
420
16711680
  6
Continuous
370
5
390
F
  0
LAYER
  5
5A
100
AcDbSymbolTableRecord
100
AcDbLayerTableRecord
  2
Guide Panel
 70
0
 62
94
420
32768
  6
DASHEDX2
370
5
390
F
  0
LAYER
  5
5B
100
AcDbSymbolTableRecord
100
AcDbLayerTableRecord
  2
Helpers
 70
0
 62
2
420
16776960
  6
Continuous
370
25
390
F
  0
LAYER
  5
10
100
AcDbSymbolTableRecord
100
AcDbLayerTableRecord
  2
0
 70
0
 62
7
420
16777215
  6
Continuous
370
25
390
F
  0
LAYER
  5
5C
100
AcDbSymbolTableRecord
100
AcDbLayerTableRecord
  2
Cut
 70
0
 62
5
420
255
  6
Continuous
370
5
390
F
  0
LAYER
  5
5D
100
AcDbSymbolTableRecord
100
AcDbLayerTableRecord
  2
Guide Enclosure
 70
0
 62
3
420
65280
  6
CENTERX2
370
5
390
F
  0
ENDTAB
  0
TABLE
  2
STYLE
  5
3
100
AcDbSymbolTable
 70
9
  0
STYLE
  5
5E
100
AcDbSymbolTableRecord
100
AcDbTextStyleTableRecord
  2
Standard
 70
0
 40
0.0
 41
1.0
 50
0.0
 71
0
 42
2.5
  3

  4

1001
ACAD
1000
txt
1071
0
  0
STYLE
  5
5F
100
AcDbSymbolTableRecord
100
AcDbTextStyleTableRecord
  2
textstyle0
 70
0
 40
0.0
 41
1.0
 50
0.0
 71
0
 42
2.0
  3

  4

1001
ACAD
1000
Standard
1071
33554432
  0
STYLE
  5
60
100
AcDbSymbolTableRecord
100
AcDbTextStyleTableRecord
  2
textstyle1
 70
0
 40
0.0
 41
1.0
 50
0.0
 71
0
 42
2.0
  3

  4

1001
ACAD
1000
Standard
1071
33554432
  0
STYLE
  5
61
100
AcDbSymbolTableRecord
100
AcDbTextStyleTableRecord
  2
textstyle2
 70
0
 40
0.0
 41
1.0
 50
0.0
 71
0
 42
2.0
  3

  4

1001
ACAD
1000
Standard
1071
33554432
  0
STYLE
  5
62
100
AcDbSymbolTableRecord
100
AcDbTextStyleTableRecord
  2
textstyle3
 70
0
 40
0.0
 41
1.0
 50
0.0
 71
0
 42
2.0
  3

  4

1001
ACAD
1000
Standard
1071
33554432
  0
STYLE
  5
63
100
AcDbSymbolTableRecord
100
AcDbTextStyleTableRecord
  2
textstyle4
 70
0
 40
0.0
 41
1.0
 50
0.0
 71
0
 42
2.0
  3

  4

1001
ACAD
1000
Standard
1071
33554432
  0
STYLE
  5
64
100
AcDbSymbolTableRecord
100
AcDbTextStyleTableRecord
  2
textstyle5
 70
0
 40
0.0
 41
1.0
 50
0.0
 71
0
 42
2.0
  3

  4

1001
ACAD
1000
Standard
1071
33554432
  0
STYLE
  5
65
100
AcDbSymbolTableRecord
100
AcDbTextStyleTableRecord
  2
textstyle6
 70
0
 40
0.0
 41
1.0
 50
0.0
 71
0
 42
2.0
  3

  4

1001
ACAD
1000
Standard
1071
33554432
  0
STYLE
  5
66
100
AcDbSymbolTableRecord
100
AcDbTextStyleTableRecord
  2
textstyle7
 70
0
 40
0.0
 41
1.0
 50
0.0
 71
0
 42
2.0
  3

  4

1001
ACAD
1000
Standard
1071
33554432
  0
ENDTAB
  0
TABLE
  2
VIEW
  5
6
100
AcDbSymbolTable
 70
0
  0
ENDTAB
  0
TABLE
  2
UCS
  5
7
100
AcDbSymbolTable
 70
0
  0
ENDTAB
  0
TABLE
  2
APPID
  5
9
100
AcDbSymbolTable
 70
1
  0
APPID
  5
12
100
AcDbSymbolTableRecord
100
AcDbRegAppTableRecord
  2
ACAD
 70
0
  0
APPID
  5
67
100
AcDbSymbolTableRecord
100
AcDbRegAppTableRecord
  2
QCAD
 70
0
  0
ENDTAB
  0
TABLE
  2
DIMSTYLE
  5
A
100
AcDbSymbolTable
 70
1
100
AcDbDimStyleTable
 71
0
  0
DIMSTYLE
105
27
100
AcDbSymbolTableRecord
100
AcDbDimStyleTableRecord
  2
Standard
 41
2.5
 42
0.625
 43
3.75
 44
1.25
 70
0
 73
0
 74
0
 77
1
 78
8
140
2.5
141
2.5
143
0.03937007874016
147
0.625
171
3
172
1
271
2
272
2
274
3
278
44
283
0
284
8
340
5E
  0
ENDTAB
  0
TABLE
  2
BLOCK_RECORD
  5
1
100
AcDbSymbolTable
 70
1
  0
BLOCK_RECORD
  5
1F
100
AcDbSymbolTableRecord
100
AcDbBlockTableRecord
  2
*Model_Space
340
22
  0
BLOCK_RECORD
  5
1B
100
AcDbSymbolTableRecord
100
AcDbBlockTableRecord
  2
*Paper_Space
340
1E
  0
BLOCK_RECORD
  5
23
100
AcDbSymbolTableRecord
100
AcDbBlockTableRecord
  2
*Paper_Space0
340
26
  0
BLOCK_RECORD
  5
68
100
AcDbSymbolTableRecord
100
AcDbBlockTableRecord
  2
b2-panel
340
0
  0
BLOCK_RECORD
  5
69
100
AcDbSymbolTableRecord
100
AcDbBlockTableRecord
  2
Amphenol ACJS-HDR
340
0
  0
BLOCK_RECORD
  5
6A
100
AcDbSymbolTableRecord
100
AcDbBlockTableRecord
  2
led-3mm
340
0
  0
BLOCK_RECORD
  5
6B
100
AcDbSymbolTableRecord
100
AcDbBlockTableRecord
  2
spun-9mm-cap
340
0
  0
BLOCK_RECORD
  5
6C
100
AcDbSymbolTableRecord
100
AcDbBlockTableRecord
  2
Switchcraft 712RA
340
0
  0
BLOCK_RECORD
  5
6D
100
AcDbSymbolTableRecord
100
AcDbBlockTableRecord
  2
Keystone 7762
340
0
  0
ENDTAB
  0
ENDSEC
  0
SECTION
  2
BLOCKS
  0
BLOCK
  5
20
100
AcDbEntity
  8
0
100
AcDbBlockBegin
  2
*Model_Space
 70
0
 10
0.0
 20
0.0
 30
0.0
  3
*Model_Space
  1

  0
ENDBLK
  5
21
100
AcDbEntity
  8
0
100
AcDbBlockEnd
  0
BLOCK
  5
1C
100
AcDbEntity
 67
1
  8
0
100
AcDbBlockBegin
  2
*Paper_Space
 70
0
 10
0.0
 20
0.0
 30
0.0
  3
*Paper_Space
  1

  0
ENDBLK
  5
1D
100
AcDbEntity
 67
1
  8
0
100
AcDbBlockEnd
  0
BLOCK
  5
24
100
AcDbEntity
  8
0
100
AcDbBlockBegin
  2
*Paper_Space0
 70
0
 10
0.0
 20
0.0
 30
0.0
  3
*Paper_Space0
  1

  0
ENDBLK
  5
25
100
AcDbEntity
  8
0
100
AcDbBlockEnd
  0
BLOCK
  5
6E
100
AcDbEntity
  8
0
100
AcDbBlockBegin
  2
b2-panel
 70
0
 10
0.0
 20
0.0
 30
0.0
  3
b2-panel
  1

  0
LINE
  5
6F
100
AcDbEntity
100
AcDbLine
  8
Guide Enclosure
 62
256
370
-1
 48
1.0
  6
Continuous
 10
-27.4292893219499092
 20
29.9292893217999598
 30
0.0
 11
-27.0707106781501352
 21
29.57071067810001
 31
0.0
  0
LINE
  5
70
100
AcDbEntity
100
AcDbLine
  8
Guide Enclosure
 62
256
370
-1
 48
1.0
  6
Continuous
 10
45.2085786437501156
 20
0.0
 30
0.0
 11
-45.2085786437501156
 21
0.0
 31
0.0
  0
LINE
  5
71
100
AcDbEntity
100
AcDbLine
  8
Guide Enclosure
 62
256
370
-1
 48
1.0
  6
Continuous
 10
44.4999999999500346
 20
27.9999999999999964
 30
0.0
 11
-44.5000000000500222
 21
27.9999999999999964
 31
0.0
  0
LINE
  5
72
100
AcDbEntity
100
AcDbLine
  8
Guide Enclosure
 62
256
370
-1
 48
1.0
  6
Continuous
 10
-44.5000000000500222
 20
2.0000000000000071
 30
0.0
 11
44.4999999999500346
 21
2.0000000000000071
 31
0.0
  0
ARC
  5
73
100
AcDbEntity
  8
Guide Enclosure
 62
256
370
-1
 48
1.0
  6
Continuous
100
AcDbCircle
 10
-44.5000000000500222
 20
3.0000000000000071
 30
0.0
 40
1.0
100
AcDbArc
 50
180.0
 51
270.0
  0
ARC
  5
74
100
AcDbEntity
  8
Guide Enclosure
 62
256
370
-1
 48
1.0
  6
Continuous
100
AcDbCircle
 10
-52.2500000000500222
 20
4.0002104320000171
 30
0.0
 40
2.0
100
AcDbArc
 50
180.0
 51
240.0000000000003126
  0
ARC
  5
75
100
AcDbEntity
  8
Guide Enclosure
 62
256
370
-1
 48
1.0
  6
Continuous
100
AcDbCircle
 10
-45.2085786437501156
 20
0.1000000000000298
 30
0.0
 40
0.1
100
AcDbArc
 50
224.9999999999906777
 51
270.0
  0
ARC
  5
76
100
AcDbEntity
  8
Guide Enclosure
 62
256
370
-1
 48
1.0
  6
Continuous
100
AcDbCircle
 10
-51.2500000000500222
 20
3.0000000000000071
 30
0.0
 40
3.0
100
AcDbArc
 50
219.4855704468110389
 51
269.1873669120196269
  0
ARC
  5
77
100
AcDbEntity
  8
Guide Enclosure
 62
256
370
-1
 48
1.0
  6
Continuous
100
AcDbCircle
 10
-53.4881757776502127
 20
1.1559367720000182
 30
0.0
 40
0.1
100
AcDbArc
 50
135.0000000000092939
 51
219.4855704468110389
  0
ARC
  5
78
100
AcDbEntity
  8
Guide Enclosure
 62
256
370
-1
 48
1.0
  6
Continuous
100
AcDbCircle
 10
-52.9483965339500173
 20
1.9785587282000279
 30
0.0
 40
0.1
100
AcDbArc
 50
315.0000000000093223
 51
60.0000000000002771
  0
LINE
  5
79
100
AcDbEntity
100
AcDbLine
  8
Guide Enclosure
 62
256
370
-1
 48
1.0
  6
Continuous
 10
-53.5588864557503257
 20
1.2266474502000086
 30
0.0
 11
-52.8776858558503591
 21
1.9078480501000286
 31
0.0
  0
LINE
  5
7A
100
AcDbEntity
100
AcDbLine
  8
Guide Enclosure
 62
256
370
-1
 48
1.0
  6
Continuous
 10
-52.8983965339502902
 20
2.0651612685999901
 30
0.0
 11
-53.2500000000500222
 21
2.2681596244000275
 31
0.0
  0
ARC
  5
7B
100
AcDbEntity
  8
Guide Enclosure
 62
256
370
-1
 48
1.0
  6
Continuous
100
AcDbCircle
 10
-47.2914213562497707
 20
1.8999999999999773
 30
0.0
 40
0.1
100
AcDbArc
 50
44.9999999999906706
 51
90.0
  0
ARC
  5
7C
100
AcDbEntity
  8
Guide Enclosure
 62
256
370
-1
 48
1.0
  6
Continuous
100
AcDbCircle
 10
-49.2085786437501156
 20
1.8999999999999773
 30
0.0
 40
0.1
100
AcDbArc
 50
90.0
 51
135.0000000000092939
  0
ARC
  5
7D
100
AcDbEntity
  8
Guide Enclosure
 62
256
370
-1
 48
1.0
  6
Continuous
100
AcDbCircle
 10
-51.2911296777501775
 20
0.1002916784999606
 30
0.0
 40
0.1
100
AcDbArc
 50
269.1873669120196269
 51
315.0000000000093223
  0
LINE
  5
7E
100
AcDbEntity
100
AcDbLine
  8
Guide Enclosure
 62
256
370
-1
 48
1.0
  6
Continuous
 10
-47.2914213562497707
 20
2.0000000000000071
 30
0.0
 11
-49.2085786437501156
 21
2.0000000000000071
 31
0.0
  0
LINE
  5
7F
100
AcDbEntity
100
AcDbLine
  8
Guide Enclosure
 62
256
370
-1
 48
1.0
  6
Continuous
 10
-49.2792893219501593
 20
1.9707106780999801
 30
0.0
 11
-51.2204189996500645
 21
0.0295810003999577
 31
0.0
  0
LINE
  5
80
100
AcDbEntity
100
AcDbLine
  8
Guide Enclosure
 62
256
370
-1
 48
1.0
  6
Continuous
 10
-45.2792893219501593
 20
0.029289321799979
 30
0.0
 11
-47.2207106781501125
 21
1.9707106780999801
 31
0.0
  0
ARC
  5
81
100
AcDbEntity
  8
Guide Enclosure
 62
256
370
-1
 48
1.0
  6
Continuous
100
AcDbCircle
 10
-44.5000000000500222
 20
27.0000000000000107
 30
0.0
 40
1.0
100
AcDbArc
 50
90.0
 51
180.0
  0
LINE
  5
82
100
AcDbEntity
100
AcDbLine
  8
Guide Enclosure
 62
256
370
-1
 48
1.0
  6
Continuous
 10
-51.2500000000500222
 20
29.9999999999999964
 30
0.0
 11
-39.7071067812502179
 21
29.9999999999999964
 31
0.0
  0
ARC
  5
83
100
AcDbEntity
  8
Guide Enclosure
 62
256
370
-1
 48
1.0
  6
Continuous
100
AcDbCircle
 10
-46.2500000000500222
 20
5.0499999999999581
 30
0.0
 40
0.75
100
AcDbArc
 50
0.0
 51
90.0
  0
ARC
  5
84
100
AcDbEntity
  8
Guide Enclosure
 62
256
370
-1
 48
1.0
  6
Continuous
100
AcDbCircle
 10
-46.2500000000500222
 20
26.3500000000000263
 30
0.0
 40
0.75
100
AcDbArc
 50
270.0
 51
0.0
  0
LINE
  5
85
100
AcDbEntity
100
AcDbLine
  8
Guide Enclosure
 62
256
370
-1
 48
1.0
  6
Continuous
 10
-45.5000000000500222
 20
27.0000000000000107
 30
0.0
 11
-45.5000000000500222
 21
26.3500000000000263
 31
0.0
  0
LINE
  5
86
100
AcDbEntity
100
AcDbLine
  8
Guide Enclosure
 62
256
370
-1
 48
1.0
  6
Continuous
 10
-50.2500000000500222
 20
16.6999999999999922
 30
0.0
 11
-50.2500000000500222
 21
14.8999999999999808
 31
0.0
  0
LINE
  5
87
100
AcDbEntity
100
AcDbLine
  8
Guide Enclosure
 62
256
370
-1
 48
1.0
  6
Continuous
 10
-54.2500000000500222
 20
12.9732050806999872
 30
0.0
 11
-54.2500000000500222
 21
17.0267949192000394
 31
0.0
  0
LINE
  5
88
100
AcDbEntity
100
AcDbLine
  8
Guide Enclosure
 62
256
370
-1
 48
1.0
  6
Continuous
 10
-52.2500000000500222
 20
5.3917096230999881
 30
0.0
 11
-52.2500000000500222
 21
13.6082903768000314
 31
0.0
  0
ARC
  5
89
100
AcDbEntity
  8
Guide Enclosure
 62
256
370
-1
 48
1.0
  6
Continuous
100
AcDbCircle
 10
-54.1500000000501132
 20
6.0267949192000394
 30
0.0
 40
0.1
100
AcDbArc
 50
60.0000000000002771
 51
180.0
  0
ARC
  5
8A
100
AcDbEntity
  8
Guide Enclosure
 62
256
370
-1
 48
1.0
  6
Continuous
100
AcDbCircle
 10
-52.4500000000498403
 20
5.3917096230999881
 30
0.0
 40
0.2
100
AcDbArc
 50
240.0000000000003126
 51
0.0
  0
LINE
  5
8B
100
AcDbEntity
100
AcDbLine
  8
Guide Enclosure
 62
256
370
-1
 48
1.0
  6
Continuous
 10
-54.100000000050386
 20
6.1133974595999874
 30
0.0
 11
-52.5500000000502041
 21
5.2185045423000282
 31
0.0
  0
LINE
  5
8C
100
AcDbEntity
100
AcDbLine
  8
Guide Enclosure
 62
256
370
-1
 48
1.0
  6
Continuous
 10
-54.2500000000500222
 20
4.0002104320000171
 30
0.0
 11
-54.2500000000500222
 21
6.0267949192000394
 31
0.0
  0
ARC
  5
8D
100
AcDbEntity
  8
Guide Enclosure
 62
256
370
-1
 48
1.0
  6
Continuous
100
AcDbCircle
 10
-52.4500000000498403
 20
13.6082903768000314
 30
0.0
 40
0.2
100
AcDbArc
 50
0.0
 51
119.9999999999996874
  0
ARC
  5
8E
100
AcDbEntity
  8
Guide Enclosure
 62
256
370
-1
 48
1.0
  6
Continuous
100
AcDbCircle
 10
-54.1500000000501132
 20
12.9732050806999872
 30
0.0
 40
0.1
100
AcDbArc
 50
180.0
 51
299.9999999999997158
  0
LINE
  5
8F
100
AcDbEntity
100
AcDbLine
  8
Guide Enclosure
 62
256
370
-1
 48
1.0
  6
Continuous
 10
-52.5500000000502041
 20
13.7814954575999913
 30
0.0
 11
-54.100000000050386
 21
12.8866025403000357
 31
0.0
  0
LINE
  5
90
100
AcDbEntity
100
AcDbLine
  8
Guide Enclosure
 62
256
370
-1
 48
1.0
  6
Continuous
 10
-48.0000000000500222
 20
7.6999999999999886
 30
0.0
 11
-48.0000000000500222
 21
6.6924811555999781
 31
0.0
  0
ARC
  5
91
100
AcDbEntity
  8
Guide Enclosure
 62
256
370
-1
 48
1.0
  6
Continuous
100
AcDbCircle
 10
-48.100000000050386
 20
6.6924811555999781
 30
0.0
 40
0.1
100
AcDbArc
 50
264.2608295227121857
 51
0.0
  0
ARC
  5
92
100
AcDbEntity
  8
Guide Enclosure
 62
256
370
-1
 48
1.0
  6
Continuous
100
AcDbCircle
 10
-48.2500000000500222
 20
5.1999999999999886
 30
0.0
 40
1.399999999999999
100
AcDbArc
 50
84.2608295227122426
 51
192.6076345141601962
  0
ARC
  5
93
100
AcDbEntity
  8
Guide Enclosure
 62
256
370
-1
 48
1.0
  6
Continuous
100
AcDbCircle
 10
-46.835786437650313
 20
5.6999999999999886
 30
0.0
 40
0.1
100
AcDbArc
 50
90.0
 51
199.4712206344964045
  0
ARC
  5
94
100
AcDbEntity
  8
Guide Enclosure
 62
256
370
-1
 48
1.0
  6
Continuous
100
AcDbCircle
 10
-50.1500000000501132
 20
14.8999999999999808
 30
0.0
 40
0.1
100
AcDbArc
 50
180.0
 51
270.0
  0
ARC
  5
95
100
AcDbEntity
  8
Guide Enclosure
 62
256
370
-1
 48
1.0
  6
Continuous
100
AcDbCircle
 10
-48.100000000050386
 20
14.6999999999999993
 30
0.0
 40
0.1
100
AcDbArc
 50
0.0
 51
90.0
  0
ARC
  5
96
100
AcDbEntity
  8
Guide Enclosure
 62
256
370
-1
 48
1.0
  6
Continuous
100
AcDbCircle
 10
-48.100000000050386
 20
13.3999999999999808
 30
0.0
 40
0.1
100
AcDbArc
 50
270.0
 51
0.0
  0
ARC
  5
97
100
AcDbEntity
  8
Guide Enclosure
 62
256
370
-1
 48
1.0
  6
Continuous
100
AcDbCircle
 10
-50.1500000000501132
 20
13.1999999999999922
 30
0.0
 40
0.1
100
AcDbArc
 50
90.0
 51
180.0
  0
ARC
  5
98
100
AcDbEntity
  8
Guide Enclosure
 62
256
370
-1
 48
1.0
  6
Continuous
100
AcDbCircle
 10
-50.1500000000501132
 20
11.3999999999999808
 30
0.0
 40
0.1
100
AcDbArc
 50
180.0
 51
270.0
  0
ARC
  5
99
100
AcDbEntity
  8
Guide Enclosure
 62
256
370
-1
 48
1.0
  6
Continuous
100
AcDbCircle
 10
-48.100000000050386
 20
11.1999999999999993
 30
0.0
 40
0.1
100
AcDbArc
 50
0.0
 51
90.0
  0
ARC
  5
9A
100
AcDbEntity
  8
Guide Enclosure
 62
256
370
-1
 48
1.0
  6
Continuous
100
AcDbCircle
 10
-48.100000000050386
 20
9.8999999999999808
 30
0.0
 40
0.1
100
AcDbArc
 50
270.0
 51
0.0
  0
ARC
  5
9B
100
AcDbEntity
  8
Guide Enclosure
 62
256
370
-1
 48
1.0
  6
Continuous
100
AcDbCircle
 10
-50.1500000000501132
 20
9.6999999999999993
 30
0.0
 40
0.1
100
AcDbArc
 50
90.0
 51
180.0
  0
ARC
  5
9C
100
AcDbEntity
  8
Guide Enclosure
 62
256
370
-1
 48
1.0
  6
Continuous
100
AcDbCircle
 10
-50.1500000000501132
 20
7.8999999999999773
 30
0.0
 40
0.1
100
AcDbArc
 50
180.0
 51
270.0
  0
ARC
  5
9D
100
AcDbEntity
  8
Guide Enclosure
 62
256
370
-1
 48
1.0
  6
Continuous
100
AcDbCircle
 10
-48.100000000050386
 20
7.6999999999999886
 30
0.0
 40
0.1
100
AcDbArc
 50
0.0
 51
90.0
  0
LINE
  5
9E
100
AcDbEntity
100
AcDbLine
  8
Guide Enclosure
 62
256
370
-1
 48
1.0
  6
Continuous
 10
-50.1500000000501132
 20
14.7999999999999581
 30
0.0
 11
-48.100000000050386
 21
14.7999999999999581
 31
0.0
  0
LINE
  5
9F
100
AcDbEntity
100
AcDbLine
  8
Guide Enclosure
 62
256
370
-1
 48
1.0
  6
Continuous
 10
-48.100000000050386
 20
13.2999999999999581
 30
0.0
 11
-50.1500000000501132
 21
13.2999999999999581
 31
0.0
  0
LINE
  5
A0
100
AcDbEntity
100
AcDbLine
  8
Guide Enclosure
 62
256
370
-1
 48
1.0
  6
Continuous
 10
-50.1500000000501132
 20
11.2999999999999581
 30
0.0
 11
-48.100000000050386
 21
11.2999999999999581
 31
0.0
  0
LINE
  5
A1
100
AcDbEntity
100
AcDbLine
  8
Guide Enclosure
 62
256
370
-1
 48
1.0
  6
Continuous
 10
-48.100000000050386
 20
9.7999999999999581
 30
0.0
 11
-50.1500000000501132
 21
9.7999999999999581
 31
0.0
  0
LINE
  5
A2
100
AcDbEntity
100
AcDbLine
  8
Guide Enclosure
 62
256
370
-1
 48
1.0
  6
Continuous
 10
-50.1500000000501132
 20
7.7999999999999581
 30
0.0
 11
-48.100000000050386
 21
7.7999999999999581
 31
0.0
  0
LINE
  5
A3
100
AcDbEntity
100
AcDbLine
  8
Guide Enclosure
 62
256
370
-1
 48
1.0
  6
Continuous
 10
-48.0000000000500222
 20
11.1999999999999993
 30
0.0
 11
-48.0000000000500222
 21
9.8999999999999808
 31
0.0
  0
LINE
  5
A4
100
AcDbEntity
100
AcDbLine
  8
Guide Enclosure
 62
256
370
-1
 48
1.0
  6
Continuous
 10
-48.0000000000500222
 20
14.6999999999999993
 30
0.0
 11
-48.0000000000500222
 21
13.3999999999999808
 31
0.0
  0
LINE
  5
A5
100
AcDbEntity
100
AcDbLine
  8
Guide Enclosure
 62
256
370
-1
 48
1.0
  6
Continuous
 10
-50.2500000000500222
 20
9.6999999999999993
 30
0.0
 11
-50.2500000000500222
 21
7.8999999999999773
 31
0.0
  0
LINE
  5
A6
100
AcDbEntity
100
AcDbLine
  8
Guide Enclosure
 62
256
370
-1
 48
1.0
  6
Continuous
 10
-50.2500000000500222
 20
13.1999999999999922
 30
0.0
 11
-50.2500000000500222
 21
11.3999999999999808
 31
0.0
  0
ARC
  5
A7
100
AcDbEntity
  8
Guide Enclosure
 62
256
370
-1
 48
1.0
  6
Continuous
100
AcDbCircle
 10
-51.2500000000500222
 20
27.0000000000000107
 30
0.0
 40
3.0
100
AcDbArc
 50
90.0
 51
140.5144295531889895
  0
LINE
  5
A8
100
AcDbEntity
100
AcDbLine
  8
Guide Enclosure
 62
256
370
-1
 48
1.0
  6
Continuous
 10
-52.2500000000500222
 20
16.3917096230999881
 30
0.0
 11
-52.2500000000500222
 21
24.6082903768000314
 31
0.0
  0
ARC
  5
A9
100
AcDbEntity
  8
Guide Enclosure
 62
256
370
-1
 48
1.0
  6
Continuous
100
AcDbCircle
 10
-54.1500000000501132
 20
17.0267949192000394
 30
0.0
 40
0.1
100
AcDbArc
 50
60.0000000000002771
 51
180.0
  0
ARC
  5
AA
100
AcDbEntity
  8
Guide Enclosure
 62
256
370
-1
 48
1.0
  6
Continuous
100
AcDbCircle
 10
-52.4500000000498403
 20
16.3917096230999881
 30
0.0
 40
0.2
100
AcDbArc
 50
240.0000000000003126
 51
0.0
  0
LINE
  5
AB
100
AcDbEntity
100
AcDbLine
  8
Guide Enclosure
 62
256
370
-1
 48
1.0
  6
Continuous
 10
-54.100000000050386
 20
17.1133974595999909
 30
0.0
 11
-52.5500000000502041
 21
16.2185045423000282
 31
0.0
  0
ARC
  5
AC
100
AcDbEntity
  8
Guide Enclosure
 62
256
370
-1
 48
1.0
  6
Continuous
100
AcDbCircle
 10
-52.4500000000498403
 20
24.6082903768000314
 30
0.0
 40
0.2
100
AcDbArc
 50
0.0
 51
119.9999999999996874
  0
ARC
  5
AD
100
AcDbEntity
  8
Guide Enclosure
 62
256
370
-1
 48
1.0
  6
Continuous
100
AcDbCircle
 10
-54.1500000000501132
 20
23.9732050806999872
 30
0.0
 40
0.1
100
AcDbArc
 50
180.0
 51
299.9999999999997158
  0
ARC
  5
AE
100
AcDbEntity
  8
Guide Enclosure
 62
256
370
-1
 48
1.0
  6
Continuous
100
AcDbCircle
 10
-52.2500000000500222
 20
25.9997895678999988
 30
0.0
 40
2.0
100
AcDbArc
 50
119.9999999999996874
 51
180.0
  0
ARC
  5
AF
100
AcDbEntity
  8
Guide Enclosure
 62
256
370
-1
 48
1.0
  6
Continuous
100
AcDbCircle
 10
-52.9483965339500173
 20
28.0214412716999881
 30
0.0
 40
0.1
100
AcDbArc
 50
299.9999999999997158
 51
44.9999999999906706
  0
ARC
  5
B0
100
AcDbEntity
  8
Guide Enclosure
 62
256
370
-1
 48
1.0
  6
Continuous
100
AcDbCircle
 10
-53.4881757776502127
 20
28.8440632278999978
 30
0.0
 40
0.1
100
AcDbArc
 50
140.5144295531889895
 51
224.9999999999906777
  0
LINE
  5
B1
100
AcDbEntity
100
AcDbLine
  8
Guide Enclosure
 62
256
370
-1
 48
1.0
  6
Continuous
 10
-52.8776858558503591
 20
28.0921519497999874
 30
0.0
 11
-53.5588864557503257
 21
28.7733525497000109
 31
0.0
  0
LINE
  5
B2
100
AcDbEntity
100
AcDbLine
  8
Guide Enclosure
 62
256
370
-1
 48
1.0
  6
Continuous
 10
-52.5500000000502041
 20
24.7814954575999913
 30
0.0
 11
-54.100000000050386
 21
23.8866025403000286
 31
0.0
  0
LINE
  5
B3
100
AcDbEntity
100
AcDbLine
  8
Guide Enclosure
 62
256
370
-1
 48
1.0
  6
Continuous
 10
-53.2500000000500222
 20
27.7318403754999885
 30
0.0
 11
-52.8983965339502902
 21
27.9348387312999797
 31
0.0
  0
LINE
  5
B4
100
AcDbEntity
100
AcDbLine
  8
Guide Enclosure
 62
256
370
-1
 48
1.0
  6
Continuous
 10
-54.2500000000500222
 20
23.9732050806999872
 30
0.0
 11
-54.2500000000500222
 21
25.9997895678999988
 31
0.0
  0
ARC
  5
B5
100
AcDbEntity
  8
Guide Enclosure
 62
256
370
-1
 48
1.0
  6
Continuous
100
AcDbCircle
 10
-48.100000000050386
 20
23.8999999999999808
 30
0.0
 40
0.1
100
AcDbArc
 50
270.0
 51
0.0
  0
ARC
  5
B6
100
AcDbEntity
  8
Guide Enclosure
 62
256
370
-1
 48
1.0
  6
Continuous
100
AcDbCircle
 10
-50.1500000000501132
 20
23.6999999999999922
 30
0.0
 40
0.1
100
AcDbArc
 50
90.0
 51
180.0
  0
ARC
  5
B7
100
AcDbEntity
  8
Guide Enclosure
 62
256
370
-1
 48
1.0
  6
Continuous
100
AcDbCircle
 10
-50.1500000000501132
 20
21.8999999999999808
 30
0.0
 40
0.1
100
AcDbArc
 50
180.0
 51
270.0
  0
ARC
  5
B8
100
AcDbEntity
  8
Guide Enclosure
 62
256
370
-1
 48
1.0
  6
Continuous
100
AcDbCircle
 10
-48.100000000050386
 20
21.6999999999999922
 30
0.0
 40
0.1
100
AcDbArc
 50
0.0
 51
90.0
  0
ARC
  5
B9
100
AcDbEntity
  8
Guide Enclosure
 62
256
370
-1
 48
1.0
  6
Continuous
100
AcDbCircle
 10
-48.100000000050386
 20
20.3999999999999808
 30
0.0
 40
0.1
100
AcDbArc
 50
270.0
 51
0.0
  0
ARC
  5
BA
100
AcDbEntity
  8
Guide Enclosure
 62
256
370
-1
 48
1.0
  6
Continuous
100
AcDbCircle
 10
-50.1500000000501132
 20
20.1999999999999922
 30
0.0
 40
0.1
100
AcDbArc
 50
90.0
 51
180.0
  0
ARC
  5
BB
100
AcDbEntity
  8
Guide Enclosure
 62
256
370
-1
 48
1.0
  6
Continuous
100
AcDbCircle
 10
-50.1500000000501132
 20
18.3999999999999808
 30
0.0
 40
0.1
100
AcDbArc
 50
180.0
 51
270.0
  0
ARC
  5
BC
100
AcDbEntity
  8
Guide Enclosure
 62
256
370
-1
 48
1.0
  6
Continuous
100
AcDbCircle
 10
-48.100000000050386
 20
18.1999999999999922
 30
0.0
 40
0.1
100
AcDbArc
 50
0.0
 51
90.0
  0
ARC
  5
BD
100
AcDbEntity
  8
Guide Enclosure
 62
256
370
-1
 48
1.0
  6
Continuous
100
AcDbCircle
 10
-48.100000000050386
 20
16.8999999999999808
 30
0.0
 40
0.1
100
AcDbArc
 50
270.0
 51
0.0
  0
ARC
  5
BE
100
AcDbEntity
  8
Guide Enclosure
 62
256
370
-1
 48
1.0
  6
Continuous
100
AcDbCircle
 10
-50.1500000000501132
 20
16.6999999999999922
 30
0.0
 40
0.1
100
AcDbArc
 50
90.0
 51
180.0
  0
LINE
  5
BF
100
AcDbEntity
100
AcDbLine
  8
Guide Enclosure
 62
256
370
-1
 48
1.0
  6
Continuous
 10
-50.1500000000501132
 20
21.7999999999999581
 30
0.0
 11
-48.100000000050386
 21
21.7999999999999581
 31
0.0
  0
LINE
  5
C0
100
AcDbEntity
100
AcDbLine
  8
Guide Enclosure
 62
256
370
-1
 48
1.0
  6
Continuous
 10
-48.100000000050386
 20
20.299999999999951
 30
0.0
 11
-50.1500000000501132
 21
20.299999999999951
 31
0.0
  0
LINE
  5
C1
100
AcDbEntity
100
AcDbLine
  8
Guide Enclosure
 62
256
370
-1
 48
1.0
  6
Continuous
 10
-50.1500000000501132
 20
18.2999999999999581
 30
0.0
 11
-48.100000000050386
 21
18.2999999999999581
 31
0.0
  0
LINE
  5
C2
100
AcDbEntity
100
AcDbLine
  8
Guide Enclosure
 62
256
370
-1
 48
1.0
  6
Continuous
 10
-48.100000000050386
 20
16.7999999999999581
 30
0.0
 11
-50.1500000000501132
 21
16.7999999999999581
 31
0.0
  0
LINE
  5
C3
100
AcDbEntity
100
AcDbLine
  8
Guide Enclosure
 62
256
370
-1
 48
1.0
  6
Continuous
 10
-48.0000000000500222
 20
18.1999999999999922
 30
0.0
 11
-48.0000000000500222
 21
16.8999999999999808
 31
0.0
  0
LINE
  5
C4
100
AcDbEntity
100
AcDbLine
  8
Guide Enclosure
 62
256
370
-1
 48
1.0
  6
Continuous
 10
-48.0000000000500222
 20
21.6999999999999922
 30
0.0
 11
-48.0000000000500222
 21
20.3999999999999808
 31
0.0
  0
LINE
  5
C5
100
AcDbEntity
100
AcDbLine
  8
Guide Enclosure
 62
256
370
-1
 48
1.0
  6
Continuous
 10
-50.2500000000500222
 20
20.1999999999999922
 30
0.0
 11
-50.2500000000500222
 21
18.3999999999999808
 31
0.0
  0
LINE
  5
C6
100
AcDbEntity
100
AcDbLine
  8
Guide Enclosure
 62
256
370
-1
 48
1.0
  6
Continuous
 10
-50.2500000000500222
 20
23.6999999999999922
 30
0.0
 11
-50.2500000000500222
 21
21.8999999999999808
 31
0.0
  0
ARC
  5
C7
100
AcDbEntity
  8
Guide Enclosure
 62
256
370
-1
 48
1.0
  6
Continuous
100
AcDbCircle
 10
-47.1319660112502561
 20
25.6999999999999922
 30
0.0
 40
0.1
100
AcDbArc
 50
138.1896851042056937
 51
270.0
  0
ARC
  5
C8
100
AcDbEntity
  8
Guide Enclosure
 62
256
370
-1
 48
1.0
  6
Continuous
100
AcDbCircle
 10
-48.2500000000500222
 20
26.6999999999999922
 30
0.0
 40
1.649999999999999
100
AcDbArc
 50
107.9643082105833969
 51
162.0356917894077924
  0
ARC
  5
C9
100
AcDbEntity
  8
Guide Enclosure
 62
256
370
-1
 48
1.0
  6
Continuous
100
AcDbCircle
 10
-48.2500000000500222
 20
26.6999999999999922
 30
0.0
 40
1.399999999999999
100
AcDbArc
 50
167.3923654858367911
 51
275.7391704772877006
  0
ARC
  5
CA
100
AcDbEntity
  8
Guide Enclosure
 62
256
370
-1
 48
1.0
  6
Continuous
100
AcDbCircle
 10
-48.100000000050386
 20
25.207518844300008
 30
0.0
 40
0.1
100
AcDbArc
 50
0.0
 51
95.739170477287729
  0
LINE
  5
CB
100
AcDbEntity
100
AcDbLine
  8
Guide Enclosure
 62
256
370
-1
 48
1.0
  6
Continuous
 10
-48.100000000050386
 20
23.7999999999999581
 30
0.0
 11
-50.1500000000501132
 21
23.7999999999999581
 31
0.0
  0
LINE
  5
CC
100
AcDbEntity
100
AcDbLine
  8
Guide Enclosure
 62
256
370
-1
 48
1.0
  6
Continuous
 10
-48.1780758089497567
 20
23.7999999999999581
 30
0.0
 11
-48.0000000000500222
 21
23.9780758087999892
 31
0.0
  0
LINE
  5
CD
100
AcDbEntity
100
AcDbLine
  8
Guide Enclosure
 62
256
370
-1
 48
1.0
  6
Continuous
 10
-48.0000000000500222
 20
25.207518844300008
 30
0.0
 11
-48.0000000000500222
 21
23.8999999999999808
 31
0.0
  0
LINE
  5
CE
100
AcDbEntity
100
AcDbLine
  8
Guide Enclosure
 62
256
370
-1
 48
1.0
  6
Continuous
 10
-46.835786437650313
 20
5.7999999999999581
 30
0.0
 11
-46.2500000000500222
 21
5.7999999999999581
 31
0.0
  0
ARC
  5
CF
100
AcDbEntity
  8
Guide Enclosure
 62
256
370
-1
 48
1.0
  6
Continuous
100
AcDbCircle
 10
-48.2500000000500222
 20
26.6999999999999922
 30
0.0
 40
1.399999999999999
100
AcDbArc
 50
318.1896851042058074
 51
102.6076345141482022
  0
LINE
  5
D0
100
AcDbEntity
100
AcDbLine
  8
Guide Enclosure
 62
256
370
-1
 48
1.0
  6
Continuous
 10
-46.2500000000500222
 20
25.6000000000000263
 30
0.0
 11
-47.1319660112502561
 21
25.6000000000000263
 31
0.0
  0
LINE
  5
D1
100
AcDbEntity
100
AcDbLine
  8
Guide Enclosure
 62
256
370
-1
 48
1.0
  6
Continuous
 10
-28.4292893219499092
 20
29.9292893217999598
 30
0.0
 11
-28.0707106781500215
 21
29.57071067810001
 31
0.0
  0
LINE
  5
D2
100
AcDbEntity
100
AcDbLine
  8
Guide Enclosure
 62
256
370
-1
 48
1.0
  6
Continuous
 10
-34.4292893219499092
 20
29.9292893217999598
 30
0.0
 11
-34.0707106781500215
 21
29.57071067810001
 31
0.0
  0
ARC
  5
D3
100
AcDbEntity
  8
Guide Enclosure
 62
256
370
-1
 48
1.0
  6
Continuous
100
AcDbCircle
 10
-39.7071067812502179
 20
29.5000000000000107
 30
0.0
 40
0.5
100
AcDbArc
 50
44.9999999999906706
 51
90.0
  0
ARC
  5
D4
100
AcDbEntity
  8
Guide Enclosure
 62
256
370
-1
 48
1.0
  6
Continuous
100
AcDbCircle
 10
-39.0000000000500222
 20
29.6414213562000022
 30
0.0
 40
0.1
100
AcDbArc
 50
224.9999999999906777
 51
315.0000000000093223
  0
ARC
  5
D5
100
AcDbEntity
  8
Guide Enclosure
 62
256
370
-1
 48
1.0
  6
Continuous
100
AcDbCircle
 10
-38.5000000000500222
 20
29.8585786436999605
 30
0.0
 40
0.1
100
AcDbArc
 50
44.9999999999906706
 51
135.0000000000092939
  0
ARC
  5
D6
100
AcDbEntity
  8
Guide Enclosure
 62
256
370
-1
 48
1.0
  6
Continuous
100
AcDbCircle
 10
-38.0000000000500222
 20
29.6414213562000022
 30
0.0
 40
0.1
100
AcDbArc
 50
224.9999999999906777
 51
315.0000000000093223
  0
ARC
  5
D7
100
AcDbEntity
  8
Guide Enclosure
 62
256
370
-1
 48
1.0
  6
Continuous
100
AcDbCircle
 10
-37.5000000000500222
 20
29.8585786436999605
 30
0.0
 40
0.1
100
AcDbArc
 50
44.9999999999906706
 51
135.0000000000092939
  0
ARC
  5
D8
100
AcDbEntity
  8
Guide Enclosure
 62
256
370
-1
 48
1.0
  6
Continuous
100
AcDbCircle
 10
-37.0000000000500222
 20
29.6414213562000022
 30
0.0
 40
0.1
100
AcDbArc
 50
224.9999999999906777
 51
315.0000000000093223
  0
ARC
  5
D9
100
AcDbEntity
  8
Guide Enclosure
 62
256
370
-1
 48
1.0
  6
Continuous
100
AcDbCircle
 10
-36.5000000000500222
 20
29.8585786436999605
 30
0.0
 40
0.1
100
AcDbArc
 50
44.9999999999906706
 51
135.0000000000092939
  0
ARC
  5
DA
100
AcDbEntity
  8
Guide Enclosure
 62
256
370
-1
 48
1.0
  6
Continuous
100
AcDbCircle
 10
-36.0000000000500222
 20
29.6414213562000022
 30
0.0
 40
0.1
100
AcDbArc
 50
224.9999999999906777
 51
315.0000000000093223
  0
ARC
  5
DB
100
AcDbEntity
  8
Guide Enclosure
 62
256
370
-1
 48
1.0
  6
Continuous
100
AcDbCircle
 10
-35.5000000000500222
 20
29.8585786436999605
 30
0.0
 40
0.1
100
AcDbArc
 50
44.9999999999906706
 51
135.0000000000092939
  0
ARC
  5
DC
100
AcDbEntity
  8
Guide Enclosure
 62
256
370
-1
 48
1.0
  6
Continuous
100
AcDbCircle
 10
-35.0000000000500222
 20
29.6414213562000022
 30
0.0
 40
0.1
100
AcDbArc
 50
224.9999999999906777
 51
315.0000000000093223
  0
ARC
  5
DD
100
AcDbEntity
  8
Guide Enclosure
 62
256
370
-1
 48
1.0
  6
Continuous
100
AcDbCircle
 10
-34.5000000000500222
 20
29.8585786436999605
 30
0.0
 40
0.1
100
AcDbArc
 50
44.9999999999906706
 51
135.0000000000092939
  0
LINE
  5
DE
100
AcDbEntity
100
AcDbLine
  8
Guide Enclosure
 62
256
370
-1
 48
1.0
  6
Continuous
 10
-35.4292893219499092
 20
29.9292893217999598
 30
0.0
 11
-35.0707106781501352
 21
29.57071067810001
 31
0.0
  0
LINE
  5
DF
100
AcDbEntity
100
AcDbLine
  8
Guide Enclosure
 62
256
370
-1
 48
1.0
  6
Continuous
 10
-36.4292893219499092
 20
29.9292893217999598
 30
0.0
 11
-36.0707106781500215
 21
29.57071067810001
 31
0.0
  0
LINE
  5
E0
100
AcDbEntity
100
AcDbLine
  8
Guide Enclosure
 62
256
370
-1
 48
1.0
  6
Continuous
 10
-37.4292893219499092
 20
29.9292893217999598
 30
0.0
 11
-37.0707106781500215
 21
29.57071067810001
 31
0.0
  0
LINE
  5
E1
100
AcDbEntity
100
AcDbLine
  8
Guide Enclosure
 62
256
370
-1
 48
1.0
  6
Continuous
 10
-38.4292893219499092
 20
29.9292893217999598
 30
0.0
 11
-38.0707106781500215
 21
29.57071067810001
 31
0.0
  0
LINE
  5
E2
100
AcDbEntity
100
AcDbLine
  8
Guide Enclosure
 62
256
370
-1
 48
1.0
  6
Continuous
 10
-39.3535533906501769
 20
29.8535533905000001
 30
0.0
 11
-39.0707106781501352
 21
29.57071067810001
 31
0.0
  0
LINE
  5
E3
100
AcDbEntity
100
AcDbLine
  8
Guide Enclosure
 62
256
370
-1
 48
1.0
  6
Continuous
 10
-34.9292893219499092
 20
29.57071067810001
 30
0.0
 11
-34.5707106781501352
 21
29.9292893217999598
 31
0.0
  0
LINE
  5
E4
100
AcDbEntity
100
AcDbLine
  8
Guide Enclosure
 62
256
370
-1
 48
1.0
  6
Continuous
 10
-35.9292893219499092
 20
29.57071067810001
 30
0.0
 11
-35.5707106781500215
 21
29.9292893217999598
 31
0.0
  0
LINE
  5
E5
100
AcDbEntity
100
AcDbLine
  8
Guide Enclosure
 62
256
370
-1
 48
1.0
  6
Continuous
 10
-36.9292893219499092
 20
29.57071067810001
 30
0.0
 11
-36.5707106781500215
 21
29.9292893217999598
 31
0.0
  0
LINE
  5
E6
100
AcDbEntity
100
AcDbLine
  8
Guide Enclosure
 62
256
370
-1
 48
1.0
  6
Continuous
 10
-37.9292893219499092
 20
29.57071067810001
 30
0.0
 11
-37.5707106781500215
 21
29.9292893217999598
 31
0.0
  0
LINE
  5
E7
100
AcDbEntity
100
AcDbLine
  8
Guide Enclosure
 62
256
370
-1
 48
1.0
  6
Continuous
 10
-38.9292893219499092
 20
29.57071067810001
 30
0.0
 11
-38.5707106781500215
 21
29.9292893217999598
 31
0.0
  0
ARC
  5
E8
100
AcDbEntity
  8
Guide Enclosure
 62
256
370
-1
 48
1.0
  6
Continuous
100
AcDbCircle
 10
-34.0000000000500222
 20
29.6414213562000022
 30
0.0
 40
0.1
100
AcDbArc
 50
224.9999999999906777
 51
315.0000000000093223
  0
ARC
  5
E9
100
AcDbEntity
  8
Guide Enclosure
 62
256
370
-1
 48
1.0
  6
Continuous
100
AcDbCircle
 10
-33.5000000000500222
 20
29.8585786436999605
 30
0.0
 40
0.1
100
AcDbArc
 50
44.9999999999906706
 51
135.0000000000092939
  0
ARC
  5
EA
100
AcDbEntity
  8
Guide Enclosure
 62
256
370
-1
 48
1.0
  6
Continuous
100
AcDbCircle
 10
-33.0000000000500222
 20
29.6414213562000022
 30
0.0
 40
0.1
100
AcDbArc
 50
224.9999999999906777
 51
315.0000000000093223
  0
ARC
  5
EB
100
AcDbEntity
  8
Guide Enclosure
 62
256
370
-1
 48
1.0
  6
Continuous
100
AcDbCircle
 10
-32.5000000000500222
 20
29.8585786436999605
 30
0.0
 40
0.1
100
AcDbArc
 50
44.9999999999906706
 51
135.0000000000092939
  0
ARC
  5
EC
100
AcDbEntity
  8
Guide Enclosure
 62
256
370
-1
 48
1.0
  6
Continuous
100
AcDbCircle
 10
-32.0000000000500222
 20
29.6414213562000022
 30
0.0
 40
0.1
100
AcDbArc
 50
224.9999999999906777
 51
315.0000000000093223
  0
ARC
  5
ED
100
AcDbEntity
  8
Guide Enclosure
 62
256
370
-1
 48
1.0
  6
Continuous
100
AcDbCircle
 10
-31.5000000000500222
 20
29.8585786436999605
 30
0.0
 40
0.1
100
AcDbArc
 50
44.9999999999906706
 51
135.0000000000092939
  0
ARC
  5
EE
100
AcDbEntity
  8
Guide Enclosure
 62
256
370
-1
 48
1.0
  6
Continuous
100
AcDbCircle
 10
-31.0000000000500222
 20
29.6414213562000022
 30
0.0
 40
0.1
100
AcDbArc
 50
224.9999999999906777
 51
315.0000000000093223
  0
ARC
  5
EF
100
AcDbEntity
  8
Guide Enclosure
 62
256
370
-1
 48
1.0
  6
Continuous
100
AcDbCircle
 10
-30.5000000000500222
 20
29.8585786436999605
 30
0.0
 40
0.1
100
AcDbArc
 50
44.9999999999906706
 51
135.0000000000092939
  0
ARC
  5
F0
100
AcDbEntity
  8
Guide Enclosure
 62
256
370
-1
 48
1.0
  6
Continuous
100
AcDbCircle
 10
-30.0000000000500222
 20
29.6414213562000022
 30
0.0
 40
0.1
100
AcDbArc
 50
224.9999999999906777
 51
315.0000000000093223
  0
ARC
  5
F1
100
AcDbEntity
  8
Guide Enclosure
 62
256
370
-1
 48
1.0
  6
Continuous
100
AcDbCircle
 10
-29.5000000000500222
 20
29.8585786436999605
 30
0.0
 40
0.1
100
AcDbArc
 50
44.9999999999906706
 51
135.0000000000092939
  0
ARC
  5
F2
100
AcDbEntity
  8
Guide Enclosure
 62
256
370
-1
 48
1.0
  6
Continuous
100
AcDbCircle
 10
-29.0000000000500222
 20
29.6414213562000022
 30
0.0
 40
0.1
100
AcDbArc
 50
224.9999999999906777
 51
315.0000000000093223
  0
ARC
  5
F3
100
AcDbEntity
  8
Guide Enclosure
 62
256
370
-1
 48
1.0
  6
Continuous
100
AcDbCircle
 10
-28.5000000000500222
 20
29.8585786436999605
 30
0.0
 40
0.1
100
AcDbArc
 50
44.9999999999906706
 51
135.0000000000092939
  0
LINE
  5
F4
100
AcDbEntity
100
AcDbLine
  8
Guide Enclosure
 62
256
370
-1
 48
1.0
  6
Continuous
 10
-29.4292893219499092
 20
29.9292893217999598
 30
0.0
 11
-29.0707106781500215
 21
29.57071067810001
 31
0.0
  0
LINE
  5
F5
100
AcDbEntity
100
AcDbLine
  8
Guide Enclosure
 62
256
370
-1
 48
1.0
  6
Continuous
 10
-30.4292893219499092
 20
29.9292893217999598
 30
0.0
 11
-30.0707106781500215
 21
29.57071067810001
 31
0.0
  0
LINE
  5
F6
100
AcDbEntity
100
AcDbLine
  8
Guide Enclosure
 62
256
370
-1
 48
1.0
  6
Continuous
 10
-31.4292893219499092
 20
29.9292893217999598
 30
0.0
 11
-31.0707106781501352
 21
29.57071067810001
 31
0.0
  0
LINE
  5
F7
100
AcDbEntity
100
AcDbLine
  8
Guide Enclosure
 62
256
370
-1
 48
1.0
  6
Continuous
 10
-32.4292893219499092
 20
29.9292893217999598
 30
0.0
 11
-32.0707106781500215
 21
29.57071067810001
 31
0.0
  0
LINE
  5
F8
100
AcDbEntity
100
AcDbLine
  8
Guide Enclosure
 62
256
370
-1
 48
1.0
  6
Continuous
 10
-33.4292893219499092
 20
29.9292893217999598
 30
0.0
 11
-33.0707106781500215
 21
29.57071067810001
 31
0.0
  0
LINE
  5
F9
100
AcDbEntity
100
AcDbLine
  8
Guide Enclosure
 62
256
370
-1
 48
1.0
  6
Continuous
 10
-28.9292893219499092
 20
29.57071067810001
 30
0.0
 11
-28.5707106781500215
 21
29.9292893217999598
 31
0.0
  0
LINE
  5
FA
100
AcDbEntity
100
AcDbLine
  8
Guide Enclosure
 62
256
370
-1
 48
1.0
  6
Continuous
 10
-29.9292893219499092
 20
29.57071067810001
 30
0.0
 11
-29.5707106781500215
 21
29.9292893217999598
 31
0.0
  0
LINE
  5
FB
100
AcDbEntity
100
AcDbLine
  8
Guide Enclosure
 62
256
370
-1
 48
1.0
  6
Continuous
 10
-30.9292893219499092
 20
29.57071067810001
 30
0.0
 11
-30.5707106781501352
 21
29.9292893217999598
 31
0.0
  0
LINE
  5
FC
100
AcDbEntity
100
AcDbLine
  8
Guide Enclosure
 62
256
370
-1
 48
1.0
  6
Continuous
 10
-31.9292893219499092
 20
29.57071067810001
 30
0.0
 11
-31.5707106781500215
 21
29.9292893217999598
 31
0.0
  0
LINE
  5
FD
100
AcDbEntity
100
AcDbLine
  8
Guide Enclosure
 62
256
370
-1
 48
1.0
  6
Continuous
 10
-32.9292893219499092
 20
29.57071067810001
 30
0.0
 11
-32.5707106781500215
 21
29.9292893217999598
 31
0.0
  0
LINE
  5
FE
100
AcDbEntity
100
AcDbLine
  8
Guide Enclosure
 62
256
370
-1
 48
1.0
  6
Continuous
 10
-33.9292893219499092
 20
29.57071067810001
 30
0.0
 11
-33.5707106781500215
 21
29.9292893217999598
 31
0.0
  0
ARC
  5
FF
100
AcDbEntity
  8
Guide Enclosure
 62
256
370
-1
 48
1.0
  6
Continuous
100
AcDbCircle
 10
-28.0000000000500222
 20
29.6414213562000022
 30
0.0
 40
0.1
100
AcDbArc
 50
224.9999999999906777
 51
315.0000000000093223
  0
ARC
  5
100
100
AcDbEntity
  8
Guide Enclosure
 62
256
370
-1
 48
1.0
  6
Continuous
100
AcDbCircle
 10
-27.5000000000500222
 20
29.8585786436999605
 30
0.0
 40
0.1
100
AcDbArc
 50
44.9999999999906706
 51
135.0000000000092939
  0
LINE
  5
101
100
AcDbEntity
100
AcDbLine
  8
Guide Enclosure
 62
256
370
-1
 48
1.0
  6
Continuous
 10
-27.9292893219499092
 20
29.57071067810001
 30
0.0
 11
-27.5707106781500215
 21
29.9292893217999598
 31
0.0
  0
LINE
  5
102
100
AcDbEntity
100
AcDbLine
  8
Guide Enclosure
 62
256
370
-1
 48
1.0
  6
Continuous
 10
-48.5555825890251072
 20
28.0662427607549567
 30
0.0
 11
-48.7589003987013712
 21
28.2695605704312918
 31
0.0
  0
LINE
  5
103
100
AcDbEntity
100
AcDbLine
  8
Guide Enclosure
 62
256
370
-1
 48
1.0
  6
Continuous
 10
-49.6162427608051075
 20
27.0055825889751056
 30
0.0
 11
-49.8195605704812579
 21
27.2089003986514903
 31
0.0
  0
LINE
  5
104
100
AcDbEntity
100
AcDbLine
  8
Guide Enclosure
 62
256
370
-1
 48
1.0
  6
Continuous
 10
-48.5555825890251072
 20
3.833757239245049
 30
0.0
 11
-48.7589003987013712
 21
3.6304394295686997
 31
0.0
  0
LINE
  5
105
100
AcDbEntity
100
AcDbLine
  8
Guide Enclosure
 62
256
370
-1
 48
1.0
  6
Continuous
 10
-49.6162427608051075
 20
4.8944174110248788
 30
0.0
 11
-49.8195605704812579
 21
4.6910996013484976
 31
0.0
  0
LINE
  5
106
100
AcDbEntity
100
AcDbLine
  8
Guide Enclosure
 62
256
370
-1
 48
1.0
  6
Continuous
 10
-45.5000000000500222
 20
5.0499999999999581
 30
0.0
 11
-45.5000000000500222
 21
3.0000000000000071
 31
0.0
  0
ARC
  5
107
100
AcDbEntity
  8
Guide Enclosure
 62
256
370
-1
 48
1.0
  6
Continuous
100
AcDbCircle
 10
-48.2500000000500222
 20
5.1999999999999886
 30
0.0
 40
1.649999999999999
100
AcDbArc
 50
197.9643082105939129
 51
252.0356917894164042
  0
ARC
  5
108
100
AcDbEntity
  8
Guide Enclosure
 62
256
370
-1
 48
1.0
  6
Continuous
100
AcDbCircle
 10
-48.2500000000500222
 20
5.1999999999999886
 30
0.0
 40
1.399999999999999
100
AcDbArc
 50
257.3923654858518262
 51
19.4712206344964507
  0
ARC
  5
109
100
AcDbEntity
  8
Guide Enclosure
 62
256
370
-1
 48
1.0
  6
Continuous
100
AcDbCircle
 10
44.4999999999500346
 20
3.0000000000000071
 30
0.0
 40
1.0
100
AcDbArc
 50
270.0
 51
0.0
  0
ARC
  5
10A
100
AcDbEntity
  8
Guide Enclosure
 62
256
370
-1
 48
1.0
  6
Continuous
100
AcDbCircle
 10
52.2499999999500346
 20
4.0002104320000171
 30
0.0
 40
2.0
100
AcDbArc
 50
299.9999999999997158
 51
0.0
  0
ARC
  5
10B
100
AcDbEntity
  8
Guide Enclosure
 62
256
370
-1
 48
1.0
  6
Continuous
100
AcDbCircle
 10
52.9483965338500298
 20
1.9785587282000279
 30
0.0
 40
0.1
100
AcDbArc
 50
119.9999999999996874
 51
224.9999999999906777
  0
ARC
  5
10C
100
AcDbEntity
  8
Guide Enclosure
 62
256
370
-1
 48
1.0
  6
Continuous
100
AcDbCircle
 10
51.2499999999500346
 20
3.0000000000000071
 30
0.0
 40
3.0
100
AcDbArc
 50
270.8126330880064074
 51
320.5144295531885064
  0
LINE
  5
10D
100
AcDbEntity
100
AcDbLine
  8
Guide Enclosure
 62
256
370
-1
 48
1.0
  6
Continuous
 10
52.8776858557499168
 20
1.9078480501000286
 30
0.0
 11
53.5588864557498141
 21
1.2266474502000086
 31
0.0
  0
LINE
  5
10E
100
AcDbEntity
100
AcDbLine
  8
Guide Enclosure
 62
256
370
-1
 48
1.0
  6
Continuous
 10
47.2207106780498407
 20
1.9707106780999801
 30
0.0
 11
45.2792893218498307
 21
0.029289321799979
 31
0.0
  0
ARC
  5
10F
100
AcDbEntity
  8
Guide Enclosure
 62
256
370
-1
 48
1.0
  6
Continuous
100
AcDbCircle
 10
45.2085786437501156
 20
0.1000000000000298
 30
0.0
 40
0.1
100
AcDbArc
 50
270.0
 51
315.0000000000093223
  0
ARC
  5
110
100
AcDbEntity
  8
Guide Enclosure
 62
256
370
-1
 48
1.0
  6
Continuous
100
AcDbCircle
 10
51.2911296776501331
 20
0.1002916784999606
 30
0.0
 40
0.1
100
AcDbArc
 50
224.9999999999906777
 51
270.8126330880064074
  0
ARC
  5
111
100
AcDbEntity
  8
Guide Enclosure
 62
256
370
-1
 48
1.0
  6
Continuous
100
AcDbCircle
 10
49.2085786437501156
 20
1.8999999999999773
 30
0.0
 40
0.1
100
AcDbArc
 50
44.9999999999906706
 51
90.0
  0
ARC
  5
112
100
AcDbEntity
  8
Guide Enclosure
 62
256
370
-1
 48
1.0
  6
Continuous
100
AcDbCircle
 10
47.2914213562499413
 20
1.8999999999999773
 30
0.0
 40
0.1
100
AcDbArc
 50
90.0
 51
135.0000000000092939
  0
LINE
  5
113
100
AcDbEntity
100
AcDbLine
  8
Guide Enclosure
 62
256
370
-1
 48
1.0
  6
Continuous
 10
51.2204189995500201
 20
0.0295810003999577
 30
0.0
 11
49.2792893218498307
 21
1.9707106780999801
 31
0.0
  0
LINE
  5
114
100
AcDbEntity
100
AcDbLine
  8
Guide Enclosure
 62
256
370
-1
 48
1.0
  6
Continuous
 10
49.2085786437501156
 20
2.0000000000000071
 30
0.0
 11
47.2914213562499413
 21
2.0000000000000071
 31
0.0
  0
ARC
  5
115
100
AcDbEntity
  8
Guide Enclosure
 62
256
370
-1
 48
1.0
  6
Continuous
100
AcDbCircle
 10
53.4881757775502251
 20
1.1559367720000182
 30
0.0
 40
0.1
100
AcDbArc
 50
320.5144295531885064
 51
44.9999999999906706
  0
LINE
  5
116
100
AcDbEntity
100
AcDbLine
  8
Guide Enclosure
 62
256
370
-1
 48
1.0
  6
Continuous
 10
53.2499999999500346
 20
2.2681596244000275
 30
0.0
 11
52.8983965338498479
 21
2.0651612685999901
 31
0.0
  0
LINE
  5
117
100
AcDbEntity
100
AcDbLine
  8
Guide Enclosure
 62
256
370
-1
 48
1.0
  6
Continuous
 10
-23.9585786437501156
 20
29.5000000000000107
 30
0.0
 11
23.9585786437501156
 21
29.5000000000000107
 31
0.0
  0
ARC
  5
118
100
AcDbEntity
  8
Guide Enclosure
 62
256
370
-1
 48
1.0
  6
Continuous
100
AcDbCircle
 10
-27.0000000000500222
 20
29.6414213562000022
 30
0.0
 40
0.1
100
AcDbArc
 50
224.9999999999906777
 51
315.0000000000093223
  0
ARC
  5
119
100
AcDbEntity
  8
Guide Enclosure
 62
256
370
-1
 48
1.0
  6
Continuous
100
AcDbCircle
 10
-26.5000000000500222
 20
29.8585786436999605
 30
0.0
 40
0.1
100
AcDbArc
 50
44.9999999999906706
 51
135.0000000000092939
  0
ARC
  5
11A
100
AcDbEntity
  8
Guide Enclosure
 62
256
370
-1
 48
1.0
  6
Continuous
100
AcDbCircle
 10
-26.0000000000500222
 20
29.6414213562000022
 30
0.0
 40
0.1
100
AcDbArc
 50
224.9999999999906777
 51
315.0000000000093223
  0
ARC
  5
11B
100
AcDbEntity
  8
Guide Enclosure
 62
256
370
-1
 48
1.0
  6
Continuous
100
AcDbCircle
 10
-25.5000000000500222
 20
29.8585786436999605
 30
0.0
 40
0.1
100
AcDbArc
 50
44.9999999999906706
 51
135.0000000000092939
  0
ARC
  5
11C
100
AcDbEntity
  8
Guide Enclosure
 62
256
370
-1
 48
1.0
  6
Continuous
100
AcDbCircle
 10
-25.0000000000500222
 20
29.6414213562000022
 30
0.0
 40
0.1
100
AcDbArc
 50
224.9999999999906777
 51
315.0000000000093223
  0
ARC
  5
11D
100
AcDbEntity
  8
Guide Enclosure
 62
256
370
-1
 48
1.0
  6
Continuous
100
AcDbCircle
 10
-24.5000000000500222
 20
29.8585786436999605
 30
0.0
 40
0.1
100
AcDbArc
 50
44.9999999999906706
 51
135.0000000000092939
  0
ARC
  5
11E
100
AcDbEntity
  8
Guide Enclosure
 62
256
370
-1
 48
1.0
  6
Continuous
100
AcDbCircle
 10
-23.9585786437501156
 20
29.6000000000000263
 30
0.0
 40
0.1
100
AcDbArc
 50
224.9999999999906777
 51
270.0
  0
LINE
  5
11F
100
AcDbEntity
100
AcDbLine
  8
Guide Enclosure
 62
256
370
-1
 48
1.0
  6
Continuous
 10
-24.4292893219499092
 20
29.9292893217999598
 30
0.0
 11
-24.029289321950273
 21
29.5292893217999755
 31
0.0
  0
LINE
  5
120
100
AcDbEntity
100
AcDbLine
  8
Guide Enclosure
 62
256
370
-1
 48
1.0
  6
Continuous
 10
-25.4292893219499092
 20
29.9292893217999598
 30
0.0
 11
-25.0707106781500215
 21
29.57071067810001
 31
0.0
  0
LINE
  5
121
100
AcDbEntity
100
AcDbLine
  8
Guide Enclosure
 62
256
370
-1
 48
1.0
  6
Continuous
 10
-26.4292893219499092
 20
29.9292893217999598
 30
0.0
 11
-26.0707106781500215
 21
29.57071067810001
 31
0.0
  0
LINE
  5
122
100
AcDbEntity
100
AcDbLine
  8
Guide Enclosure
 62
256
370
-1
 48
1.0
  6
Continuous
 10
-24.9292893219499092
 20
29.57071067810001
 30
0.0
 11
-24.5707106781500215
 21
29.9292893217999598
 31
0.0
  0
LINE
  5
123
100
AcDbEntity
100
AcDbLine
  8
Guide Enclosure
 62
256
370
-1
 48
1.0
  6
Continuous
 10
-25.9292893219499092
 20
29.57071067810001
 30
0.0
 11
-25.5707106781500215
 21
29.9292893217999598
 31
0.0
  0
LINE
  5
124
100
AcDbEntity
100
AcDbLine
  8
Guide Enclosure
 62
256
370
-1
 48
1.0
  6
Continuous
 10
-26.9292893219499092
 20
29.57071067810001
 30
0.0
 11
-26.5707106781501352
 21
29.9292893217999598
 31
0.0
  0
LINE
  5
125
100
AcDbEntity
100
AcDbLine
  8
Guide Enclosure
 62
256
370
-1
 48
1.0
  6
Continuous
 10
54.2499999999500346
 20
17.0267949192000394
 30
0.0
 11
54.2499999999500346
 21
12.9732050806999872
 31
0.0
  0
LINE
  5
126
100
AcDbEntity
100
AcDbLine
  8
Guide Enclosure
 62
256
370
-1
 48
1.0
  6
Continuous
 10
50.2499999999500346
 20
14.8999999999999808
 30
0.0
 11
50.2499999999500346
 21
16.6999999999999922
 31
0.0
  0
LINE
  5
127
100
AcDbEntity
100
AcDbLine
  8
Guide Enclosure
 62
256
370
-1
 48
1.0
  6
Continuous
 10
52.5499999999502165
 20
5.2185045423000282
 30
0.0
 11
54.0999999999499437
 21
6.1133974595999874
 31
0.0
  0
LINE
  5
128
100
AcDbEntity
100
AcDbLine
  8
Guide Enclosure
 62
256
370
-1
 48
1.0
  6
Continuous
 10
54.0999999999499437
 20
12.8866025403000357
 30
0.0
 11
52.5499999999502165
 21
13.7814954575999913
 31
0.0
  0
LINE
  5
129
100
AcDbEntity
100
AcDbLine
  8
Guide Enclosure
 62
256
370
-1
 48
1.0
  6
Continuous
 10
52.2499999999500346
 20
13.6082903768000314
 30
0.0
 11
52.2499999999500346
 21
5.3917096230999881
 31
0.0
  0
LINE
  5
12A
100
AcDbEntity
100
AcDbLine
  8
Guide Enclosure
 62
256
370
-1
 48
1.0
  6
Continuous
 10
47.9999999999500346
 20
6.6924811555999781
 30
0.0
 11
47.9999999999500346
 21
7.6999999999999886
 31
0.0
  0
ARC
  5
12B
100
AcDbEntity
  8
Guide Enclosure
 62
256
370
-1
 48
1.0
  6
Continuous
100
AcDbCircle
 10
46.2499999999500346
 20
5.0499999999999581
 30
0.0
 40
0.75
100
AcDbArc
 50
90.0
 51
180.0
  0
ARC
  5
12C
100
AcDbEntity
  8
Guide Enclosure
 62
256
370
-1
 48
1.0
  6
Continuous
100
AcDbCircle
 10
46.8357864376499151
 20
5.6999999999999886
 30
0.0
 40
0.1
100
AcDbArc
 50
340.5287793655036239
 51
90.0
  0
LINE
  5
12D
100
AcDbEntity
100
AcDbLine
  8
Guide Enclosure
 62
256
370
-1
 48
1.0
  6
Continuous
 10
46.2499999999500346
 20
5.7999999999999581
 30
0.0
 11
46.8357864376499151
 21
5.7999999999999581
 31
0.0
  0
ARC
  5
12E
100
AcDbEntity
  8
Guide Enclosure
 62
256
370
-1
 48
1.0
  6
Continuous
100
AcDbCircle
 10
52.4499999999498527
 20
5.3917096230999881
 30
0.0
 40
0.2
100
AcDbArc
 50
180.0
 51
299.9999999999997158
  0
ARC
  5
12F
100
AcDbEntity
  8
Guide Enclosure
 62
256
370
-1
 48
1.0
  6
Continuous
100
AcDbCircle
 10
48.2499999999500346
 20
5.1999999999999886
 30
0.0
 40
1.399999999999999
100
AcDbArc
 50
347.3923654892705031
 51
95.739170477287729
  0
ARC
  5
130
100
AcDbEntity
  8
Guide Enclosure
 62
256
370
-1
 48
1.0
  6
Continuous
100
AcDbCircle
 10
48.0999999999499437
 20
6.6924811555999781
 30
0.0
 40
0.1
100
AcDbArc
 50
180.0
 51
275.7391704772877006
  0
ARC
  5
131
100
AcDbEntity
  8
Guide Enclosure
 62
256
370
-1
 48
1.0
  6
Continuous
100
AcDbCircle
 10
52.4499999999498527
 20
13.6082903768000314
 30
0.0
 40
0.2
100
AcDbArc
 50
60.0000000000002771
 51
180.0
  0
ARC
  5
132
100
AcDbEntity
  8
Guide Enclosure
 62
256
370
-1
 48
1.0
  6
Continuous
100
AcDbCircle
 10
48.0999999999499437
 20
7.6999999999999886
 30
0.0
 40
0.1
100
AcDbArc
 50
90.0
 51
180.0
  0
ARC
  5
133
100
AcDbEntity
  8
Guide Enclosure
 62
256
370
-1
 48
1.0
  6
Continuous
100
AcDbCircle
 10
50.1499999999497277
 20
7.8999999999999773
 30
0.0
 40
0.1
100
AcDbArc
 50
270.0
 51
0.0
  0
ARC
  5
134
100
AcDbEntity
  8
Guide Enclosure
 62
256
370
-1
 48
1.0
  6
Continuous
100
AcDbCircle
 10
50.1499999999497277
 20
9.6999999999999993
 30
0.0
 40
0.1
100
AcDbArc
 50
0.0
 51
90.0
  0
ARC
  5
135
100
AcDbEntity
  8
Guide Enclosure
 62
256
370
-1
 48
1.0
  6
Continuous
100
AcDbCircle
 10
48.0999999999499437
 20
9.8999999999999808
 30
0.0
 40
0.1
100
AcDbArc
 50
180.0
 51
270.0
  0
ARC
  5
136
100
AcDbEntity
  8
Guide Enclosure
 62
256
370
-1
 48
1.0
  6
Continuous
100
AcDbCircle
 10
48.0999999999499437
 20
11.1999999999999993
 30
0.0
 40
0.1
100
AcDbArc
 50
90.0
 51
180.0
  0
ARC
  5
137
100
AcDbEntity
  8
Guide Enclosure
 62
256
370
-1
 48
1.0
  6
Continuous
100
AcDbCircle
 10
50.1499999999497277
 20
11.3999999999999808
 30
0.0
 40
0.1
100
AcDbArc
 50
270.0
 51
0.0
  0
ARC
  5
138
100
AcDbEntity
  8
Guide Enclosure
 62
256
370
-1
 48
1.0
  6
Continuous
100
AcDbCircle
 10
50.1499999999497277
 20
13.1999999999999922
 30
0.0
 40
0.1
100
AcDbArc
 50
0.0
 51
90.0
  0
ARC
  5
139
100
AcDbEntity
  8
Guide Enclosure
 62
256
370
-1
 48
1.0
  6
Continuous
100
AcDbCircle
 10
48.0999999999499437
 20
13.3999999999999808
 30
0.0
 40
0.1
100
AcDbArc
 50
180.0
 51
270.0
  0
ARC
  5
13A
100
AcDbEntity
  8
Guide Enclosure
 62
256
370
-1
 48
1.0
  6
Continuous
100
AcDbCircle
 10
48.0999999999499437
 20
14.6999999999999993
 30
0.0
 40
0.1
100
AcDbArc
 50
90.0
 51
180.0
  0
ARC
  5
13B
100
AcDbEntity
  8
Guide Enclosure
 62
256
370
-1
 48
1.0
  6
Continuous
100
AcDbCircle
 10
50.1499999999497277
 20
14.8999999999999808
 30
0.0
 40
0.1
100
AcDbArc
 50
270.0
 51
0.0
  0
LINE
  5
13C
100
AcDbEntity
100
AcDbLine
  8
Guide Enclosure
 62
256
370
-1
 48
1.0
  6
Continuous
 10
50.2499999999500346
 20
11.3999999999999808
 30
0.0
 11
50.2499999999500346
 21
13.1999999999999922
 31
0.0
  0
LINE
  5
13D
100
AcDbEntity
100
AcDbLine
  8
Guide Enclosure
 62
256
370
-1
 48
1.0
  6
Continuous
 10
50.2499999999500346
 20
7.8999999999999773
 30
0.0
 11
50.2499999999500346
 21
9.6999999999999993
 31
0.0
  0
LINE
  5
13E
100
AcDbEntity
100
AcDbLine
  8
Guide Enclosure
 62
256
370
-1
 48
1.0
  6
Continuous
 10
47.9999999999500346
 20
13.3999999999999808
 30
0.0
 11
47.9999999999500346
 21
14.6999999999999993
 31
0.0
  0
LINE
  5
13F
100
AcDbEntity
100
AcDbLine
  8
Guide Enclosure
 62
256
370
-1
 48
1.0
  6
Continuous
 10
47.9999999999500346
 20
9.8999999999999808
 30
0.0
 11
47.9999999999500346
 21
11.1999999999999993
 31
0.0
  0
LINE
  5
140
100
AcDbEntity
100
AcDbLine
  8
Guide Enclosure
 62
256
370
-1
 48
1.0
  6
Continuous
 10
48.0999999999499437
 20
14.7999999999999581
 30
0.0
 11
50.1499999999497277
 21
14.7999999999999581
 31
0.0
  0
LINE
  5
141
100
AcDbEntity
100
AcDbLine
  8
Guide Enclosure
 62
256
370
-1
 48
1.0
  6
Continuous
 10
50.1499999999497277
 20
13.2999999999999581
 30
0.0
 11
48.0999999999499437
 21
13.2999999999999581
 31
0.0
  0
LINE
  5
142
100
AcDbEntity
100
AcDbLine
  8
Guide Enclosure
 62
256
370
-1
 48
1.0
  6
Continuous
 10
48.0999999999499437
 20
11.2999999999999581
 30
0.0
 11
50.1499999999497277
 21
11.2999999999999581
 31
0.0
  0
LINE
  5
143
100
AcDbEntity
100
AcDbLine
  8
Guide Enclosure
 62
256
370
-1
 48
1.0
  6
Continuous
 10
50.1499999999497277
 20
9.7999999999999581
 30
0.0
 11
48.0999999999499437
 21
9.7999999999999581
 31
0.0
  0
LINE
  5
144
100
AcDbEntity
100
AcDbLine
  8
Guide Enclosure
 62
256
370
-1
 48
1.0
  6
Continuous
 10
48.0999999999499437
 20
7.7999999999999581
 30
0.0
 11
50.1499999999497277
 21
7.7999999999999581
 31
0.0
  0
ARC
  5
145
100
AcDbEntity
  8
Guide Enclosure
 62
256
370
-1
 48
1.0
  6
Continuous
100
AcDbCircle
 10
54.1499999999497277
 20
6.0267949192000394
 30
0.0
 40
0.1
100
AcDbArc
 50
0.0
 51
119.9999999999996874
  0
LINE
  5
146
100
AcDbEntity
100
AcDbLine
  8
Guide Enclosure
 62
256
370
-1
 48
1.0
  6
Continuous
 10
54.2499999999500346
 20
6.0267949192000394
 30
0.0
 11
54.2499999999500346
 21
4.0002104320000171
 31
0.0
  0
ARC
  5
147
100
AcDbEntity
  8
Guide Enclosure
 62
256
370
-1
 48
1.0
  6
Continuous
100
AcDbCircle
 10
54.1499999999497277
 20
12.9732050806999872
 30
0.0
 40
0.1
100
AcDbArc
 50
240.0000000000003126
 51
0.0
  0
LINE
  5
148
100
AcDbEntity
100
AcDbLine
  8
Guide Enclosure
 62
256
370
-1
 48
1.0
  6
Continuous
 10
39.7071067811498324
 20
29.9999999999999964
 30
0.0
 11
51.2499999999500346
 21
29.9999999999999964
 31
0.0
  0
LINE
  5
149
100
AcDbEntity
100
AcDbLine
  8
Guide Enclosure
 62
256
370
-1
 48
1.0
  6
Continuous
 10
29.5707106780501476
 20
29.9292893217999598
 30
0.0
 11
29.9292893218499216
 21
29.57071067810001
 31
0.0
  0
ARC
  5
14A
100
AcDbEntity
  8
Guide Enclosure
 62
256
370
-1
 48
1.0
  6
Continuous
100
AcDbCircle
 10
28.4999999999500346
 20
29.8585786436999605
 30
0.0
 40
0.1
100
AcDbArc
 50
44.9999999999906706
 51
135.0000000000092939
  0
ARC
  5
14B
100
AcDbEntity
  8
Guide Enclosure
 62
256
370
-1
 48
1.0
  6
Continuous
100
AcDbCircle
 10
28.9999999999500346
 20
29.6414213562000022
 30
0.0
 40
0.1
100
AcDbArc
 50
224.9999999999906777
 51
315.0000000000093223
  0
ARC
  5
14C
100
AcDbEntity
  8
Guide Enclosure
 62
256
370
-1
 48
1.0
  6
Continuous
100
AcDbCircle
 10
29.4999999999500346
 20
29.8585786436999605
 30
0.0
 40
0.1
100
AcDbArc
 50
44.9999999999906706
 51
135.0000000000092939
  0
LINE
  5
14D
100
AcDbEntity
100
AcDbLine
  8
Guide Enclosure
 62
256
370
-1
 48
1.0
  6
Continuous
 10
28.5707106780501476
 20
29.9292893217999598
 30
0.0
 11
28.9292893218499216
 21
29.57071067810001
 31
0.0
  0
LINE
  5
14E
100
AcDbEntity
100
AcDbLine
  8
Guide Enclosure
 62
256
370
-1
 48
1.0
  6
Continuous
 10
29.0707106780501476
 20
29.57071067810001
 30
0.0
 11
29.4292893218499216
 21
29.9292893217999598
 31
0.0
  0
ARC
  5
14F
100
AcDbEntity
  8
Guide Enclosure
 62
256
370
-1
 48
1.0
  6
Continuous
100
AcDbCircle
 10
35.4999999999500346
 20
29.8585786436999605
 30
0.0
 40
0.1
100
AcDbArc
 50
44.9999999999906706
 51
135.0000000000092939
  0
ARC
  5
150
100
AcDbEntity
  8
Guide Enclosure
 62
256
370
-1
 48
1.0
  6
Continuous
100
AcDbCircle
 10
29.9999999999500346
 20
29.6414213562000022
 30
0.0
 40
0.1
100
AcDbArc
 50
224.9999999999906777
 51
315.0000000000093223
  0
ARC
  5
151
100
AcDbEntity
  8
Guide Enclosure
 62
256
370
-1
 48
1.0
  6
Continuous
100
AcDbCircle
 10
30.4999999999500346
 20
29.8585786436999605
 30
0.0
 40
0.1
100
AcDbArc
 50
44.9999999999906706
 51
135.0000000000092939
  0
ARC
  5
152
100
AcDbEntity
  8
Guide Enclosure
 62
256
370
-1
 48
1.0
  6
Continuous
100
AcDbCircle
 10
30.9999999999500346
 20
29.6414213562000022
 30
0.0
 40
0.1
100
AcDbArc
 50
224.9999999999906777
 51
315.0000000000093223
  0
ARC
  5
153
100
AcDbEntity
  8
Guide Enclosure
 62
256
370
-1
 48
1.0
  6
Continuous
100
AcDbCircle
 10
31.4999999999500346
 20
29.8585786436999605
 30
0.0
 40
0.1
100
AcDbArc
 50
44.9999999999906706
 51
135.0000000000092939
  0
ARC
  5
154
100
AcDbEntity
  8
Guide Enclosure
 62
256
370
-1
 48
1.0
  6
Continuous
100
AcDbCircle
 10
31.9999999999500346
 20
29.6414213562000022
 30
0.0
 40
0.1
100
AcDbArc
 50
224.9999999999906777
 51
315.0000000000093223
  0
ARC
  5
155
100
AcDbEntity
  8
Guide Enclosure
 62
256
370
-1
 48
1.0
  6
Continuous
100
AcDbCircle
 10
32.4999999999500346
 20
29.8585786436999605
 30
0.0
 40
0.1
100
AcDbArc
 50
44.9999999999906706
 51
135.0000000000092939
  0
ARC
  5
156
100
AcDbEntity
  8
Guide Enclosure
 62
256
370
-1
 48
1.0
  6
Continuous
100
AcDbCircle
 10
32.9999999999500346
 20
29.6414213562000022
 30
0.0
 40
0.1
100
AcDbArc
 50
224.9999999999906777
 51
315.0000000000093223
  0
ARC
  5
157
100
AcDbEntity
  8
Guide Enclosure
 62
256
370
-1
 48
1.0
  6
Continuous
100
AcDbCircle
 10
33.4999999999500346
 20
29.8585786436999605
 30
0.0
 40
0.1
100
AcDbArc
 50
44.9999999999906706
 51
135.0000000000092939
  0
ARC
  5
158
100
AcDbEntity
  8
Guide Enclosure
 62
256
370
-1
 48
1.0
  6
Continuous
100
AcDbCircle
 10
33.9999999999500346
 20
29.6414213562000022
 30
0.0
 40
0.1
100
AcDbArc
 50
224.9999999999906777
 51
315.0000000000093223
  0
ARC
  5
159
100
AcDbEntity
  8
Guide Enclosure
 62
256
370
-1
 48
1.0
  6
Continuous
100
AcDbCircle
 10
34.4999999999500346
 20
29.8585786436999605
 30
0.0
 40
0.1
100
AcDbArc
 50
44.9999999999906706
 51
135.0000000000092939
  0
ARC
  5
15A
100
AcDbEntity
  8
Guide Enclosure
 62
256
370
-1
 48
1.0
  6
Continuous
100
AcDbCircle
 10
34.9999999999500346
 20
29.6414213562000022
 30
0.0
 40
0.1
100
AcDbArc
 50
224.9999999999906777
 51
315.0000000000093223
  0
LINE
  5
15B
100
AcDbEntity
100
AcDbLine
  8
Guide Enclosure
 62
256
370
-1
 48
1.0
  6
Continuous
 10
34.5707106780501476
 20
29.9292893217999598
 30
0.0
 11
34.9292893218499216
 21
29.57071067810001
 31
0.0
  0
LINE
  5
15C
100
AcDbEntity
100
AcDbLine
  8
Guide Enclosure
 62
256
370
-1
 48
1.0
  6
Continuous
 10
33.5707106780501476
 20
29.9292893217999598
 30
0.0
 11
33.9292893218499216
 21
29.57071067810001
 31
0.0
  0
LINE
  5
15D
100
AcDbEntity
100
AcDbLine
  8
Guide Enclosure
 62
256
370
-1
 48
1.0
  6
Continuous
 10
32.5707106780501476
 20
29.9292893217999598
 30
0.0
 11
32.9292893218499216
 21
29.57071067810001
 31
0.0
  0
LINE
  5
15E
100
AcDbEntity
100
AcDbLine
  8
Guide Enclosure
 62
256
370
-1
 48
1.0
  6
Continuous
 10
31.5707106780501476
 20
29.9292893217999598
 30
0.0
 11
31.9292893218498079
 21
29.57071067810001
 31
0.0
  0
LINE
  5
15F
100
AcDbEntity
100
AcDbLine
  8
Guide Enclosure
 62
256
370
-1
 48
1.0
  6
Continuous
 10
30.5707106780501476
 20
29.9292893217999598
 30
0.0
 11
30.9292893218499216
 21
29.57071067810001
 31
0.0
  0
LINE
  5
160
100
AcDbEntity
100
AcDbLine
  8
Guide Enclosure
 62
256
370
-1
 48
1.0
  6
Continuous
 10
35.0707106780501476
 20
29.57071067810001
 30
0.0
 11
35.4292893218498079
 21
29.9292893217999598
 31
0.0
  0
LINE
  5
161
100
AcDbEntity
100
AcDbLine
  8
Guide Enclosure
 62
256
370
-1
 48
1.0
  6
Continuous
 10
34.0707106780501476
 20
29.57071067810001
 30
0.0
 11
34.4292893218499216
 21
29.9292893217999598
 31
0.0
  0
LINE
  5
162
100
AcDbEntity
100
AcDbLine
  8
Guide Enclosure
 62
256
370
-1
 48
1.0
  6
Continuous
 10
33.0707106780501476
 20
29.57071067810001
 30
0.0
 11
33.4292893218499216
 21
29.9292893217999598
 31
0.0
  0
LINE
  5
163
100
AcDbEntity
100
AcDbLine
  8
Guide Enclosure
 62
256
370
-1
 48
1.0
  6
Continuous
 10
32.0707106780501476
 20
29.57071067810001
 30
0.0
 11
32.4292893218499216
 21
29.9292893217999598
 31
0.0
  0
LINE
  5
164
100
AcDbEntity
100
AcDbLine
  8
Guide Enclosure
 62
256
370
-1
 48
1.0
  6
Continuous
 10
31.0707106780501476
 20
29.57071067810001
 30
0.0
 11
31.4292893218498079
 21
29.9292893217999598
 31
0.0
  0
LINE
  5
165
100
AcDbEntity
100
AcDbLine
  8
Guide Enclosure
 62
256
370
-1
 48
1.0
  6
Continuous
 10
30.0707106780501476
 20
29.57071067810001
 30
0.0
 11
30.4292893218499216
 21
29.9292893217999598
 31
0.0
  0
ARC
  5
166
100
AcDbEntity
  8
Guide Enclosure
 62
256
370
-1
 48
1.0
  6
Continuous
100
AcDbCircle
 10
35.9999999999500346
 20
29.6414213562000022
 30
0.0
 40
0.1
100
AcDbArc
 50
224.9999999999906777
 51
315.0000000000093223
  0
ARC
  5
167
100
AcDbEntity
  8
Guide Enclosure
 62
256
370
-1
 48
1.0
  6
Continuous
100
AcDbCircle
 10
36.4999999999499209
 20
29.8585786436999605
 30
0.0
 40
0.1
100
AcDbArc
 50
44.9999999999906706
 51
135.0000000000092939
  0
ARC
  5
168
100
AcDbEntity
  8
Guide Enclosure
 62
256
370
-1
 48
1.0
  6
Continuous
100
AcDbCircle
 10
36.9999999999500346
 20
29.6414213562000022
 30
0.0
 40
0.1
100
AcDbArc
 50
224.9999999999906777
 51
315.0000000000093223
  0
ARC
  5
169
100
AcDbEntity
  8
Guide Enclosure
 62
256
370
-1
 48
1.0
  6
Continuous
100
AcDbCircle
 10
37.4999999999500346
 20
29.8585786436999605
 30
0.0
 40
0.1
100
AcDbArc
 50
44.9999999999906706
 51
135.0000000000092939
  0
ARC
  5
16A
100
AcDbEntity
  8
Guide Enclosure
 62
256
370
-1
 48
1.0
  6
Continuous
100
AcDbCircle
 10
37.9999999999500346
 20
29.6414213562000022
 30
0.0
 40
0.1
100
AcDbArc
 50
224.9999999999906777
 51
315.0000000000093223
  0
ARC
  5
16B
100
AcDbEntity
  8
Guide Enclosure
 62
256
370
-1
 48
1.0
  6
Continuous
100
AcDbCircle
 10
38.4999999999500346
 20
29.8585786436999605
 30
0.0
 40
0.1
100
AcDbArc
 50
44.9999999999906706
 51
135.0000000000092939
  0
ARC
  5
16C
100
AcDbEntity
  8
Guide Enclosure
 62
256
370
-1
 48
1.0
  6
Continuous
100
AcDbCircle
 10
38.9999999999500346
 20
29.6414213562000022
 30
0.0
 40
0.1
100
AcDbArc
 50
224.9999999999906777
 51
315.0000000000093223
  0
ARC
  5
16D
100
AcDbEntity
  8
Guide Enclosure
 62
256
370
-1
 48
1.0
  6
Continuous
100
AcDbCircle
 10
39.7071067811498324
 20
29.5000000000000107
 30
0.0
 40
0.5
100
AcDbArc
 50
90.0
 51
135.0000000000092939
  0
LINE
  5
16E
100
AcDbEntity
100
AcDbLine
  8
Guide Enclosure
 62
256
370
-1
 48
1.0
  6
Continuous
 10
38.5707106780501476
 20
29.9292893217999598
 30
0.0
 11
38.9292893218499216
 21
29.57071067810001
 31
0.0
  0
LINE
  5
16F
100
AcDbEntity
100
AcDbLine
  8
Guide Enclosure
 62
256
370
-1
 48
1.0
  6
Continuous
 10
37.5707106780501476
 20
29.9292893217999598
 30
0.0
 11
37.9292893218499216
 21
29.57071067810001
 31
0.0
  0
LINE
  5
170
100
AcDbEntity
100
AcDbLine
  8
Guide Enclosure
 62
256
370
-1
 48
1.0
  6
Continuous
 10
36.5707106780501476
 20
29.9292893217999598
 30
0.0
 11
36.9292893218499216
 21
29.57071067810001
 31
0.0
  0
LINE
  5
171
100
AcDbEntity
100
AcDbLine
  8
Guide Enclosure
 62
256
370
-1
 48
1.0
  6
Continuous
 10
35.5707106780501476
 20
29.9292893217999598
 30
0.0
 11
35.9292893218498079
 21
29.57071067810001
 31
0.0
  0
LINE
  5
172
100
AcDbEntity
100
AcDbLine
  8
Guide Enclosure
 62
256
370
-1
 48
1.0
  6
Continuous
 10
39.0707106780501476
 20
29.57071067810001
 30
0.0
 11
39.3535533905497346
 21
29.8535533905000001
 31
0.0
  0
LINE
  5
173
100
AcDbEntity
100
AcDbLine
  8
Guide Enclosure
 62
256
370
-1
 48
1.0
  6
Continuous
 10
38.0707106780501476
 20
29.57071067810001
 30
0.0
 11
38.4292893218499216
 21
29.9292893217999598
 31
0.0
  0
LINE
  5
174
100
AcDbEntity
100
AcDbLine
  8
Guide Enclosure
 62
256
370
-1
 48
1.0
  6
Continuous
 10
37.0707106780501476
 20
29.57071067810001
 30
0.0
 11
37.4292893218499216
 21
29.9292893217999598
 31
0.0
  0
LINE
  5
175
100
AcDbEntity
100
AcDbLine
  8
Guide Enclosure
 62
256
370
-1
 48
1.0
  6
Continuous
 10
36.0707106780501476
 20
29.57071067810001
 30
0.0
 11
36.4292893218499216
 21
29.9292893217999598
 31
0.0
  0
ARC
  5
176
100
AcDbEntity
  8
Guide Enclosure
 62
256
370
-1
 48
1.0
  6
Continuous
100
AcDbCircle
 10
51.2499999999500346
 20
27.0000000000000107
 30
0.0
 40
3.0
100
AcDbArc
 50
39.4855704468114865
 51
90.0
  0
ARC
  5
177
100
AcDbEntity
  8
Guide Enclosure
 62
256
370
-1
 48
1.0
  6
Continuous
100
AcDbCircle
 10
52.9483965338500298
 20
28.0214412716999881
 30
0.0
 40
0.1
100
AcDbArc
 50
135.0000000000092939
 51
240.0000000000003126
  0
LINE
  5
178
100
AcDbEntity
100
AcDbLine
  8
Guide Enclosure
 62
256
370
-1
 48
1.0
  6
Continuous
 10
54.0999999999499437
 20
23.8866025403000286
 30
0.0
 11
52.5499999999502165
 21
24.7814954575999913
 31
0.0
  0
LINE
  5
179
100
AcDbEntity
100
AcDbLine
  8
Guide Enclosure
 62
256
370
-1
 48
1.0
  6
Continuous
 10
53.5588864557498141
 20
28.7733525497000109
 30
0.0
 11
52.8776858557499168
 21
28.0921519497999874
 31
0.0
  0
LINE
  5
17A
100
AcDbEntity
100
AcDbLine
  8
Guide Enclosure
 62
256
370
-1
 48
1.0
  6
Continuous
 10
52.5499999999502165
 20
16.2185045423000282
 30
0.0
 11
54.0999999999499437
 21
17.1133974595999909
 31
0.0
  0
ARC
  5
17B
100
AcDbEntity
  8
Guide Enclosure
 62
256
370
-1
 48
1.0
  6
Continuous
100
AcDbCircle
 10
50.1499999999497277
 20
23.6999999999999922
 30
0.0
 40
0.1
100
AcDbArc
 50
0.0
 51
90.0
  0
ARC
  5
17C
100
AcDbEntity
  8
Guide Enclosure
 62
256
370
-1
 48
1.0
  6
Continuous
100
AcDbCircle
 10
48.0999999999499437
 20
23.8999999999999808
 30
0.0
 40
0.1
100
AcDbArc
 50
180.0
 51
270.0
  0
LINE
  5
17D
100
AcDbEntity
100
AcDbLine
  8
Guide Enclosure
 62
256
370
-1
 48
1.0
  6
Continuous
 10
52.2499999999500346
 20
24.6082903768000314
 30
0.0
 11
52.2499999999500346
 21
16.3917096230999881
 31
0.0
  0
ARC
  5
17E
100
AcDbEntity
  8
Guide Enclosure
 62
256
370
-1
 48
1.0
  6
Continuous
100
AcDbCircle
 10
52.4499999999498527
 20
16.3917096230999881
 30
0.0
 40
0.2
100
AcDbArc
 50
180.0
 51
299.9999999999997158
  0
ARC
  5
17F
100
AcDbEntity
  8
Guide Enclosure
 62
256
370
-1
 48
1.0
  6
Continuous
100
AcDbCircle
 10
50.1499999999497277
 20
16.6999999999999922
 30
0.0
 40
0.1
100
AcDbArc
 50
0.0
 51
90.0
  0
ARC
  5
180
100
AcDbEntity
  8
Guide Enclosure
 62
256
370
-1
 48
1.0
  6
Continuous
100
AcDbCircle
 10
48.0999999999499437
 20
16.8999999999999808
 30
0.0
 40
0.1
100
AcDbArc
 50
180.0
 51
270.0
  0
ARC
  5
181
100
AcDbEntity
  8
Guide Enclosure
 62
256
370
-1
 48
1.0
  6
Continuous
100
AcDbCircle
 10
48.0999999999499437
 20
18.1999999999999922
 30
0.0
 40
0.1
100
AcDbArc
 50
90.0
 51
180.0
  0
ARC
  5
182
100
AcDbEntity
  8
Guide Enclosure
 62
256
370
-1
 48
1.0
  6
Continuous
100
AcDbCircle
 10
50.1499999999497277
 20
18.3999999999999808
 30
0.0
 40
0.1
100
AcDbArc
 50
270.0
 51
0.0
  0
ARC
  5
183
100
AcDbEntity
  8
Guide Enclosure
 62
256
370
-1
 48
1.0
  6
Continuous
100
AcDbCircle
 10
50.1499999999497277
 20
20.1999999999999922
 30
0.0
 40
0.1
100
AcDbArc
 50
0.0
 51
90.0
  0
ARC
  5
184
100
AcDbEntity
  8
Guide Enclosure
 62
256
370
-1
 48
1.0
  6
Continuous
100
AcDbCircle
 10
48.0999999999499437
 20
20.3999999999999808
 30
0.0
 40
0.1
100
AcDbArc
 50
180.0
 51
270.0
  0
ARC
  5
185
100
AcDbEntity
  8
Guide Enclosure
 62
256
370
-1
 48
1.0
  6
Continuous
100
AcDbCircle
 10
48.0999999999499437
 20
21.6999999999999922
 30
0.0
 40
0.1
100
AcDbArc
 50
90.0
 51
180.0
  0
ARC
  5
186
100
AcDbEntity
  8
Guide Enclosure
 62
256
370
-1
 48
1.0
  6
Continuous
100
AcDbCircle
 10
50.1499999999497277
 20
21.8999999999999808
 30
0.0
 40
0.1
100
AcDbArc
 50
270.0
 51
0.0
  0
LINE
  5
187
100
AcDbEntity
100
AcDbLine
  8
Guide Enclosure
 62
256
370
-1
 48
1.0
  6
Continuous
 10
50.2499999999500346
 20
21.8999999999999808
 30
0.0
 11
50.2499999999500346
 21
23.6999999999999922
 31
0.0
  0
LINE
  5
188
100
AcDbEntity
100
AcDbLine
  8
Guide Enclosure
 62
256
370
-1
 48
1.0
  6
Continuous
 10
50.2499999999500346
 20
18.3999999999999808
 30
0.0
 11
50.2499999999500346
 21
20.1999999999999922
 31
0.0
  0
LINE
  5
189
100
AcDbEntity
100
AcDbLine
  8
Guide Enclosure
 62
256
370
-1
 48
1.0
  6
Continuous
 10
47.9999999999500346
 20
20.3999999999999808
 30
0.0
 11
47.9999999999500346
 21
21.6999999999999922
 31
0.0
  0
LINE
  5
18A
100
AcDbEntity
100
AcDbLine
  8
Guide Enclosure
 62
256
370
-1
 48
1.0
  6
Continuous
 10
47.9999999999500346
 20
16.8999999999999808
 30
0.0
 11
47.9999999999500346
 21
18.1999999999999922
 31
0.0
  0
LINE
  5
18B
100
AcDbEntity
100
AcDbLine
  8
Guide Enclosure
 62
256
370
-1
 48
1.0
  6
Continuous
 10
48.0999999999499437
 20
21.7999999999999581
 30
0.0
 11
50.1499999999497277
 21
21.7999999999999581
 31
0.0
  0
LINE
  5
18C
100
AcDbEntity
100
AcDbLine
  8
Guide Enclosure
 62
256
370
-1
 48
1.0
  6
Continuous
 10
50.1499999999497277
 20
20.299999999999951
 30
0.0
 11
48.0999999999499437
 21
20.299999999999951
 31
0.0
  0
LINE
  5
18D
100
AcDbEntity
100
AcDbLine
  8
Guide Enclosure
 62
256
370
-1
 48
1.0
  6
Continuous
 10
48.0999999999499437
 20
18.2999999999999581
 30
0.0
 11
50.1499999999497277
 21
18.2999999999999581
 31
0.0
  0
LINE
  5
18E
100
AcDbEntity
100
AcDbLine
  8
Guide Enclosure
 62
256
370
-1
 48
1.0
  6
Continuous
 10
50.1499999999497277
 20
16.7999999999999581
 30
0.0
 11
48.0999999999499437
 21
16.7999999999999581
 31
0.0
  0
ARC
  5
18F
100
AcDbEntity
  8
Guide Enclosure
 62
256
370
-1
 48
1.0
  6
Continuous
100
AcDbCircle
 10
48.2499999999500346
 20
26.6999999999999922
 30
0.0
 40
1.399999999999999
100
AcDbArc
 50
77.3923654824343856
 51
221.8103148957941926
  0
LINE
  5
190
100
AcDbEntity
100
AcDbLine
  8
Guide Enclosure
 62
256
370
-1
 48
1.0
  6
Continuous
 10
47.0797427064499061
 20
25.6000000000000263
 30
0.0
 11
47.2193243340498157
 21
25.7395816275000122
 31
0.0
  0
LINE
  5
191
100
AcDbEntity
100
AcDbLine
  8
Guide Enclosure
 62
256
370
-1
 48
1.0
  6
Continuous
 10
47.131966011249915
 20
25.6000000000000263
 30
0.0
 11
46.2499999999500346
 21
25.6000000000000263
 31
0.0
  0
ARC
  5
192
100
AcDbEntity
  8
Guide Enclosure
 62
256
370
-1
 48
1.0
  6
Continuous
100
AcDbCircle
 10
46.2499999999500346
 20
26.3500000000000263
 30
0.0
 40
0.75
100
AcDbArc
 50
180.0
 51
270.0
  0
ARC
  5
193
100
AcDbEntity
  8
Guide Enclosure
 62
256
370
-1
 48
1.0
  6
Continuous
100
AcDbCircle
 10
44.4999999999500346
 20
27.0000000000000107
 30
0.0
 40
1.0
100
AcDbArc
 50
0.0
 51
90.0
  0
LINE
  5
194
100
AcDbEntity
100
AcDbLine
  8
Guide Enclosure
 62
256
370
-1
 48
1.0
  6
Continuous
 10
45.4999999999500346
 20
26.3500000000000263
 30
0.0
 11
45.4999999999500346
 21
27.0000000000000107
 31
0.0
  0
ARC
  5
195
100
AcDbEntity
  8
Guide Enclosure
 62
256
370
-1
 48
1.0
  6
Continuous
100
AcDbCircle
 10
52.4499999999498527
 20
24.6082903768000314
 30
0.0
 40
0.2
100
AcDbArc
 50
60.0000000000002771
 51
180.0
  0
ARC
  5
196
100
AcDbEntity
  8
Guide Enclosure
 62
256
370
-1
 48
1.0
  6
Continuous
100
AcDbCircle
 10
48.0999999999499437
 20
25.207518844300008
 30
0.0
 40
0.1
100
AcDbArc
 50
84.2608295227122426
 51
180.0
  0
ARC
  5
197
100
AcDbEntity
  8
Guide Enclosure
 62
256
370
-1
 48
1.0
  6
Continuous
100
AcDbCircle
 10
48.2499999999500346
 20
26.6999999999999922
 30
0.0
 40
1.399999999999999
100
AcDbArc
 50
264.2608295227121857
 51
12.6076345107294596
  0
ARC
  5
198
100
AcDbEntity
  8
Guide Enclosure
 62
256
370
-1
 48
1.0
  6
Continuous
100
AcDbCircle
 10
48.2499999999500346
 20
26.6999999999999922
 30
0.0
 40
1.649999999999999
100
AcDbArc
 50
17.964308210593888
 51
72.0356917894165178
  0
ARC
  5
199
100
AcDbEntity
  8
Guide Enclosure
 62
256
370
-1
 48
1.0
  6
Continuous
100
AcDbCircle
 10
47.131966011249915
 20
25.6999999999999922
 30
0.0
 40
0.1
100
AcDbArc
 50
270.0
 51
41.8103148957942423
  0
LINE
  5
19A
100
AcDbEntity
100
AcDbLine
  8
Guide Enclosure
 62
256
370
-1
 48
1.0
  6
Continuous
 10
47.9999999999500346
 20
23.8999999999999808
 30
0.0
 11
47.9999999999500346
 21
25.207518844300008
 31
0.0
  0
LINE
  5
19B
100
AcDbEntity
100
AcDbLine
  8
Guide Enclosure
 62
256
370
-1
 48
1.0
  6
Continuous
 10
50.1499999999497277
 20
23.7999999999999581
 30
0.0
 11
48.0999999999499437
 21
23.7999999999999581
 31
0.0
  0
ARC
  5
19C
100
AcDbEntity
  8
Guide Enclosure
 62
256
370
-1
 48
1.0
  6
Continuous
100
AcDbCircle
 10
54.1499999999497277
 20
17.0267949192000394
 30
0.0
 40
0.1
100
AcDbArc
 50
0.0
 51
119.9999999999996874
  0
ARC
  5
19D
100
AcDbEntity
  8
Guide Enclosure
 62
256
370
-1
 48
1.0
  6
Continuous
100
AcDbCircle
 10
54.1499999999497277
 20
23.9732050806999872
 30
0.0
 40
0.1
100
AcDbArc
 50
240.0000000000003126
 51
0.0
  0
ARC
  5
19E
100
AcDbEntity
  8
Guide Enclosure
 62
256
370
-1
 48
1.0
  6
Continuous
100
AcDbCircle
 10
53.4881757775502251
 20
28.8440632278999978
 30
0.0
 40
0.1
100
AcDbArc
 50
315.0000000000093223
 51
39.4855704468114865
  0
ARC
  5
19F
100
AcDbEntity
  8
Guide Enclosure
 62
256
370
-1
 48
1.0
  6
Continuous
100
AcDbCircle
 10
52.2499999999500346
 20
25.9997895678999988
 30
0.0
 40
2.0
100
AcDbArc
 50
0.0
 51
60.0000000000002771
  0
LINE
  5
1A0
100
AcDbEntity
100
AcDbLine
  8
Guide Enclosure
 62
256
370
-1
 48
1.0
  6
Continuous
 10
54.2499999999500346
 20
25.9997895678999988
 30
0.0
 11
54.2499999999500346
 21
23.9732050806999872
 31
0.0
  0
LINE
  5
1A1
100
AcDbEntity
100
AcDbLine
  8
Guide Enclosure
 62
256
370
-1
 48
1.0
  6
Continuous
 10
52.8983965338498479
 20
27.9348387312999797
 30
0.0
 11
53.2499999999500346
 21
27.7318403754999885
 31
0.0
  0
LINE
  5
1A2
100
AcDbEntity
100
AcDbLine
  8
Guide Enclosure
 62
256
370
-1
 48
1.0
  6
Continuous
 10
48.5555825890251072
 20
28.0662427607549567
 30
0.0
 11
48.7589003987013143
 21
28.2695605704312918
 31
0.0
  0
LINE
  5
1A3
100
AcDbEntity
100
AcDbLine
  8
Guide Enclosure
 62
256
370
-1
 48
1.0
  6
Continuous
 10
49.6162427608051075
 20
27.0055825889751056
 30
0.0
 11
49.8195605704814284
 21
27.2089003986514903
 31
0.0
  0
LINE
  5
1A4
100
AcDbEntity
100
AcDbLine
  8
Guide Enclosure
 62
256
370
-1
 48
1.0
  6
Continuous
 10
49.6162427608051075
 20
4.8944174110248788
 30
0.0
 11
49.8195605704814284
 21
4.6910996013484976
 31
0.0
  0
LINE
  5
1A5
100
AcDbEntity
100
AcDbLine
  8
Guide Enclosure
 62
256
370
-1
 48
1.0
  6
Continuous
 10
48.5555825890251072
 20
3.833757239245049
 30
0.0
 11
48.7589003987013143
 21
3.6304394295686997
 31
0.0
  0
ARC
  5
1A6
100
AcDbEntity
  8
Guide Enclosure
 62
256
370
-1
 48
1.0
  6
Continuous
100
AcDbCircle
 10
25.9999999999500346
 20
29.6414213562000022
 30
0.0
 40
0.1
100
AcDbArc
 50
224.9999999999906777
 51
315.0000000000093223
  0
ARC
  5
1A7
100
AcDbEntity
  8
Guide Enclosure
 62
256
370
-1
 48
1.0
  6
Continuous
100
AcDbCircle
 10
24.9999999999500346
 20
29.6414213562000022
 30
0.0
 40
0.1
100
AcDbArc
 50
224.9999999999906777
 51
315.0000000000093223
  0
ARC
  5
1A8
100
AcDbEntity
  8
Guide Enclosure
 62
256
370
-1
 48
1.0
  6
Continuous
100
AcDbCircle
 10
25.4999999999500346
 20
29.8585786436999605
 30
0.0
 40
0.1
100
AcDbArc
 50
44.9999999999906706
 51
135.0000000000092939
  0
LINE
  5
1A9
100
AcDbEntity
100
AcDbLine
  8
Guide Enclosure
 62
256
370
-1
 48
1.0
  6
Continuous
 10
25.5707106780501476
 20
29.9292893217999598
 30
0.0
 11
25.9292893218499216
 21
29.57071067810001
 31
0.0
  0
LINE
  5
1AA
100
AcDbEntity
100
AcDbLine
  8
Guide Enclosure
 62
256
370
-1
 48
1.0
  6
Continuous
 10
24.5707106780501476
 20
29.9292893217999598
 30
0.0
 11
24.9292893218499216
 21
29.57071067810001
 31
0.0
  0
LINE
  5
1AB
100
AcDbEntity
100
AcDbLine
  8
Guide Enclosure
 62
256
370
-1
 48
1.0
  6
Continuous
 10
25.0707106780501476
 20
29.57071067810001
 30
0.0
 11
25.4292893218499216
 21
29.9292893217999598
 31
0.0
  0
ARC
  5
1AC
100
AcDbEntity
  8
Guide Enclosure
 62
256
370
-1
 48
1.0
  6
Continuous
100
AcDbCircle
 10
23.9585786437501156
 20
29.6000000000000263
 30
0.0
 40
0.1
100
AcDbArc
 50
270.0
 51
315.0000000000093223
  0
LINE
  5
1AD
100
AcDbEntity
100
AcDbLine
  8
Guide Enclosure
 62
256
370
-1
 48
1.0
  6
Continuous
 10
24.0292893218498307
 20
29.5292893217999755
 30
0.0
 11
24.4292893218499216
 21
29.9292893217999598
 31
0.0
  0
ARC
  5
1AE
100
AcDbEntity
  8
Guide Enclosure
 62
256
370
-1
 48
1.0
  6
Continuous
100
AcDbCircle
 10
24.4999999999500346
 20
29.8585786436999605
 30
0.0
 40
0.1
100
AcDbArc
 50
44.9999999999906706
 51
135.0000000000092939
  0
ARC
  5
1AF
100
AcDbEntity
  8
Guide Enclosure
 62
256
370
-1
 48
1.0
  6
Continuous
100
AcDbCircle
 10
26.4999999999500346
 20
29.8585786436999605
 30
0.0
 40
0.1
100
AcDbArc
 50
44.9999999999906706
 51
135.0000000000092939
  0
ARC
  5
1B0
100
AcDbEntity
  8
Guide Enclosure
 62
256
370
-1
 48
1.0
  6
Continuous
100
AcDbCircle
 10
26.9999999999500346
 20
29.6414213562000022
 30
0.0
 40
0.1
100
AcDbArc
 50
224.9999999999906777
 51
315.0000000000093223
  0
ARC
  5
1B1
100
AcDbEntity
  8
Guide Enclosure
 62
256
370
-1
 48
1.0
  6
Continuous
100
AcDbCircle
 10
27.4999999999500346
 20
29.8585786436999605
 30
0.0
 40
0.1
100
AcDbArc
 50
44.9999999999906706
 51
135.0000000000092939
  0
ARC
  5
1B2
100
AcDbEntity
  8
Guide Enclosure
 62
256
370
-1
 48
1.0
  6
Continuous
100
AcDbCircle
 10
27.9999999999499209
 20
29.6414213562000022
 30
0.0
 40
0.1
100
AcDbArc
 50
224.9999999999906777
 51
315.0000000000093223
  0
LINE
  5
1B3
100
AcDbEntity
100
AcDbLine
  8
Guide Enclosure
 62
256
370
-1
 48
1.0
  6
Continuous
 10
27.5707106780501476
 20
29.9292893217999598
 30
0.0
 11
27.9292893218498079
 21
29.57071067810001
 31
0.0
  0
LINE
  5
1B4
100
AcDbEntity
100
AcDbLine
  8
Guide Enclosure
 62
256
370
-1
 48
1.0
  6
Continuous
 10
26.5707106780501476
 20
29.9292893217999598
 30
0.0
 11
26.9292893218499216
 21
29.57071067810001
 31
0.0
  0
LINE
  5
1B5
100
AcDbEntity
100
AcDbLine
  8
Guide Enclosure
 62
256
370
-1
 48
1.0
  6
Continuous
 10
27.0707106780501476
 20
29.57071067810001
 30
0.0
 11
27.4292893218498079
 21
29.9292893217999598
 31
0.0
  0
LINE
  5
1B6
100
AcDbEntity
100
AcDbLine
  8
Guide Enclosure
 62
256
370
-1
 48
1.0
  6
Continuous
 10
26.0707106780501476
 20
29.57071067810001
 30
0.0
 11
26.4292893218499216
 21
29.9292893217999598
 31
0.0
  0
LINE
  5
1B7
100
AcDbEntity
100
AcDbLine
  8
Guide Enclosure
 62
256
370
-1
 48
1.0
  6
Continuous
 10
28.0707106780501476
 20
29.57071067810001
 30
0.0
 11
28.4292893218499216
 21
29.9292893217999598
 31
0.0
  0
ARC
  5
1B8
100
AcDbEntity
  8
Guide Enclosure
 62
256
370
-1
 48
1.0
  6
Continuous
100
AcDbCircle
 10
48.2499999999500346
 20
5.1999999999999886
 30
0.0
 40
1.399999999999999
100
AcDbArc
 50
160.5287793655035102
 51
282.6076345175922029
  0
LINE
  5
1B9
100
AcDbEntity
100
AcDbLine
  8
Guide Enclosure
 62
256
370
-1
 48
1.0
  6
Continuous
 10
45.4999999999500346
 20
3.0000000000000071
 30
0.0
 11
45.4999999999500346
 21
5.0499999999999581
 31
0.0
  0
ARC
  5
1BA
100
AcDbEntity
  8
Guide Enclosure
 62
256
370
-1
 48
1.0
  6
Continuous
100
AcDbCircle
 10
48.2499999999500346
 20
5.1999999999999886
 30
0.0
 40
1.649999999999999
100
AcDbArc
 50
287.9643082105835106
 51
342.0356917894077924
  0
LINE
  5
1BB
100
AcDbEntity
100
AcDbLine
  8
Guide Cutout
 62
256
370
-1
 48
1.0
  6
Continuous
 10
-50.0000000001700968
 20
19.9546312171200242
 30
0.0
 11
-50.0000000001700968
 21
11.9453687800000097
 31
0.0
  0
LINE
  5
1BC
100
AcDbEntity
100
AcDbLine
  8
Guide Cutout
 62
256
370
-1
 48
1.0
  6
Continuous
 10
-41.5066699637499923
 20
3.4999999989400266
 30
0.0
 11
41.5066699604698996
 21
3.4999999989400266
 31
0.0
  0
LINE
  5
1BD
100
AcDbEntity
100
AcDbLine
  8
Guide Cutout
 62
256
370
-1
 48
1.0
  6
Continuous
 10
41.8685816623498894
 20
26.4999999983399874
 30
0.0
 11
-41.8685816630901044
 21
26.4999999983399874
 31
0.0
  0
LINE
  5
1BE
100
AcDbEntity
100
AcDbLine
  8
Guide Cutout
 62
256
370
-1
 48
1.0
  6
Continuous
 10
49.9999999994299245
 20
11.9453687800000097
 30
0.0
 11
49.9999999994299245
 21
19.9546312171200242
 31
0.0
  0
ARC
  5
1BF
100
AcDbEntity
  8
Guide Cutout
 62
256
370
-1
 48
1.0
  6
Continuous
100
AcDbCircle
 10
-48.2500000000500151
 20
5.1999999999999744
 30
0.0
 40
4.7499999995999991
100
AcDbArc
 50
2.547318182999601
 51
87.877448637900585
  0
ARC
  5
1C0
100
AcDbEntity
  8
Guide Cutout
 62
256
370
-1
 48
1.0
  6
Continuous
100
AcDbCircle
 10
48.2499999993098712
 20
5.1999999999999744
 30
0.0
 40
4.7499999995999991
100
AcDbArc
 50
92.122551362099415
 51
177.4526818170003821
  0
ARC
  5
1C1
100
AcDbEntity
  8
Guide Cutout
 62
256
370
-1
 48
1.0
  6
Continuous
100
AcDbCircle
 10
48.2499999993098712
 20
26.6999999996599939
 30
0.0
 40
4.7499999995999991
100
AcDbArc
 50
199.0216813623010239
 51
267.8774486379006134
  0
ARC
  5
1C2
100
AcDbEntity
  8
Guide Cutout
 62
256
370
-1
 48
1.0
  6
Continuous
100
AcDbCircle
 10
-48.2500000000500151
 20
26.6999999996599939
 30
0.0
 40
4.7499999995999991
100
AcDbArc
 50
272.1225513620993866
 51
340.978318637701193
  0
ARC
  5
1C3
100
AcDbEntity
  8
Guide Cutout
 62
256
370
-1
 48
1.0
  6
Continuous
100
AcDbCircle
 10
-41.5066699637499923
 20
5.4999999994400213
 30
0.0
 40
2.0000000005
100
AcDbArc
 50
182.5473181829996179
 51
270.0
  0
ARC
  5
1C4
100
AcDbEntity
  8
Guide Cutout
 62
256
370
-1
 48
1.0
  6
Continuous
100
AcDbCircle
 10
-48.0000000022100934
 20
11.9453687800000097
 30
0.0
 40
2.0000000005
100
AcDbArc
 50
180.0
 51
267.8774486379006134
  0
ARC
  5
1C5
100
AcDbEntity
  8
Guide Cutout
 62
256
370
-1
 48
1.0
  6
Continuous
100
AcDbCircle
 10
-48.0000000022100934
 20
19.9546312171200242
 30
0.0
 40
2.0000000005
100
AcDbArc
 50
92.122551362099415
 51
180.0
  0
ARC
  5
1C6
100
AcDbEntity
  8
Guide Cutout
 62
256
370
-1
 48
1.0
  6
Continuous
100
AcDbCircle
 10
-41.8685816630901044
 20
24.5000000003800977
 30
0.0
 40
2.0000000005
100
AcDbArc
 50
90.0
 51
160.9783186376990045
  0
ARC
  5
1C7
100
AcDbEntity
  8
Guide Cutout
 62
256
370
-1
 48
1.0
  6
Continuous
100
AcDbCircle
 10
41.8685816623498894
 20
24.5000000003800977
 30
0.0
 40
2.0000000005
100
AcDbArc
 50
19.0216813623009884
 51
90.0
  0
ARC
  5
1C8
100
AcDbEntity
  8
Guide Cutout
 62
256
370
-1
 48
1.0
  6
Continuous
100
AcDbCircle
 10
47.9999999989299297
 20
19.9546312171200242
 30
0.0
 40
2.0000000005
100
AcDbArc
 50
0.0
 51
87.877448637900585
  0
ARC
  5
1C9
100
AcDbEntity
  8
Guide Cutout
 62
256
370
-1
 48
1.0
  6
Continuous
100
AcDbCircle
 10
47.9999999989299297
 20
11.9453687800000097
 30
0.0
 40
2.0000000005
100
AcDbArc
 50
272.1225513620993866
 51
0.0
  0
ARC
  5
1CA
100
AcDbEntity
  8
Guide Cutout
 62
256
370
-1
 48
1.0
  6
Continuous
100
AcDbCircle
 10
41.5066699604698996
 20
5.4999999994400213
 30
0.0
 40
2.0000000005
100
AcDbArc
 50
270.0
 51
357.4526818170003821
  0
LINE
  5
1CB
100
AcDbEntity
100
AcDbLine
  8
Cut
 62
256
370
-1
 48
1.0
  6
BYLAYER
 10
-51.25
 20
0.0
 30
0.0
 11
51.25
 21
0.0
 31
0.0
  0
LINE
  5
1CC
100
AcDbEntity
100
AcDbLine
  8
Cut
 62
256
370
-1
 48
1.0
  6
BYLAYER
 10
54.25
 20
3.0
 30
0.0
 11
54.25
 21
27.0
 31
0.0
  0
LINE
  5
1CD
100
AcDbEntity
100
AcDbLine
  8
Cut
 62
256
370
-1
 48
1.0
  6
BYLAYER
 10
51.25
 20
30.0
 30
0.0
 11
-51.25
 21
30.0
 31
0.0
  0
LINE
  5
1CE
100
AcDbEntity
100
AcDbLine
  8
Cut
 62
256
370
-1
 48
1.0
  6
BYLAYER
 10
-54.25
 20
27.0
 30
0.0
 11
-54.25
 21
3.0
 31
0.0
  0
ARC
  5
1CF
100
AcDbEntity
  8
Cut
 62
256
370
-1
 48
1.0
  6
BYLAYER
100
AcDbCircle
 10
-51.25
 20
27.0
 30
0.0
 40
3.0
100
AcDbArc
 50
90.0
 51
180.0
  0
ARC
  5
1D0
100
AcDbEntity
  8
Cut
 62
256
370
-1
 48
1.0
  6
BYLAYER
100
AcDbCircle
 10
51.25
 20
27.0
 30
0.0
 40
3.0
100
AcDbArc
 50
0.0
 51
90.0
  0
ARC
  5
1D1
100
AcDbEntity
  8
Cut
 62
256
370
-1
 48
1.0
  6
BYLAYER
100
AcDbCircle
 10
51.25
 20
3.0
 30
0.0
 40
3.0
100
AcDbArc
 50
270.0
 51
0.0
  0
ARC
  5
1D2
100
AcDbEntity
  8
Cut
 62
256
370
-1
 48
1.0
  6
BYLAYER
100
AcDbCircle
 10
-51.25
 20
3.0
 30
0.0
 40
3.0
100
AcDbArc
 50
180.0
 51
270.0
  0
LINE
  5
1D3
100
AcDbEntity
100
AcDbLine
  8
Guide Panel
 62
256
370
-1
 48
1.0
  6
BYLAYER
 10
-50.0
 20
-1.0
 30
0.0
 11
-50.0
 21
31.0
 31
0.0
  0
LINE
  5
1D4
100
AcDbEntity
100
AcDbLine
  8
Guide Panel
 62
256
370
-1
 48
1.0
  6
BYLAYER
 10
50.0
 20
-1.0
 30
0.0
 11
50.0
 21
31.0
 31
0.0
  0
LINE
  5
1D5
100
AcDbEntity
100
AcDbLine
  8
Guide Panel
 62
256
370
-1
 48
1.0
  6
BYLAYER
 10
-50.2500000000500222
 20
9.599999999999989
 30
0.0
 11
50.2499999999500346
 21
9.599999999999989
 31
0.0
  0
LINE
  5
1D6
100
AcDbEntity
100
AcDbLine
  8
Guide Panel
 62
256
370
-1
 48
1.0
  6
BYLAYER
 10
-50.2500000000500222
 20
7.9999999999999885
 30
0.0
 11
50.2499999999500346
 21
7.9999999999999885
 31
0.0
  0
CIRCLE
  5
1D7
100
AcDbEntity
100
AcDbCircle
  8
Cut
 62
256
370
-1
 48
1.0
  6
BYLAYER
 10
-48.2500000000500151
 20
5.1999999999999744
 30
0.0
 40
1.6000000000000014
  0
CIRCLE
  5
1D8
100
AcDbEntity
100
AcDbCircle
  8
Cut
 62
256
370
-1
 48
1.0
  6
BYLAYER
 10
-48.250000000050008
 20
26.6999999999999922
 30
0.0
 40
1.6000000000000014
  0
CIRCLE
  5
1D9
100
AcDbEntity
100
AcDbCircle
  8
Cut
 62
256
370
-1
 48
1.0
  6
BYLAYER
 10
48.2499999993098712
 20
26.6999999996599939
 30
0.0
 40
1.6000000000000014
  0
CIRCLE
  5
1DA
100
AcDbEntity
100
AcDbCircle
  8
Cut
 62
256
370
-1
 48
1.0
  6
BYLAYER
 10
48.2499999999500417
 20
5.1999999999999744
 30
0.0
 40
1.6000000000000014
  0
TEXT
  5
1DB
100
AcDbEntity
100
AcDbText
  8
Cut
 62
256
370
-1
 48
1.0
  6
BYLAYER
 10
0.0
 20
0.0
 30
0.0
 40
2.0
  1
Cut
 50
0.0
 41
1.0
  7
textstyle0
 71
0
 72
1
 11
-50.0
 21
-4.9999999999999849
 31
0.0
100
AcDbText
 73
3
  0
TEXT
  5
1DC
100
AcDbEntity
100
AcDbText
  8
Engrave
 62
256
370
-1
 48
1.0
  6
BYLAYER
 10
0.0
 20
0.0
 30
0.0
 40
2.0
  1
Engrave
 50
0.0
 41
1.0
  7
textstyle1
 71
0
 72
1
 11
-40.0
 21
-4.9999999999999698
 31
0.0
100
AcDbText
 73
3
  0
TEXT
  5
1DD
100
AcDbEntity
100
AcDbText
  8
Fill
 62
256
370
-1
 48
1.0
  6
BYLAYER
 10
0.0
 20
0.0
 30
0.0
 40
2.0
  1
Fill
 50
0.0
 41
1.0
  7
textstyle2
 71
0
 72
1
 11
-30.0000000000000036
 21
-4.9999999999999858
 31
0.0
100
AcDbText
 73
3
  0
TEXT
  5
1DE
100
AcDbEntity
100
AcDbText
  8
Helpers
 62
256
370
-1
 48
1.0
  6
BYLAYER
 10
0.0
 20
0.0
 30
0.0
 40
2.0
  1
Helpers
 50
0.0
 41
1.0
  7
textstyle3
 71
0
 72
1
 11
-20.0
 21
-5.0
 31
0.0
100
AcDbText
 73
3
  0
ENDBLK
  5
1DF
100
AcDbEntity
  8
0
100
AcDbBlockEnd
  0
BLOCK
  5
1E0
100
AcDbEntity
  8
0
100
AcDbBlockBegin
  2
Amphenol ACJS-HDR
 70
0
 10
0.0
 20
0.0
 30
0.0
  3
Amphenol ACJS-HDR
  1

  0
CIRCLE
  5
1E1
100
AcDbEntity
100
AcDbCircle
  8
Cut
 62
256
370
-1
 48
1.0
  6
BYLAYER
 10
0.0000000000000004
 20
6.4999999999999991
 30
0.0
 40
5.7000000000000002
  0
CIRCLE
  5
1E2
100
AcDbEntity
100
AcDbCircle
  8
Helpers
 62
256
370
-1
 48
1.0
  6
BYLAYER
 10
0.0000000000000004
 20
6.4999999999999991
 30
0.0
 40
7.5
  0
ENDBLK
  5
1E3
100
AcDbEntity
  8
0
100
AcDbBlockEnd
  0
BLOCK
  5
1E4
100
AcDbEntity
  8
0
100
AcDbBlockBegin
  2
led-3mm
 70
0
 10
0.0
 20
0.0
 30
0.0
  3
led-3mm
  1

  0
CIRCLE
  5
1E5
100
AcDbEntity
100
AcDbCircle
  8
Cut
 62
256
370
-1
 48
1.0
  6
BYLAYER
 10
0.0
 20
0.25
 30
0.0
 40
1.6000000000000001
  0
ENDBLK
  5
1E6
100
AcDbEntity
  8
0
100
AcDbBlockEnd
  0
BLOCK
  5
1E7
100
AcDbEntity
  8
0
100
AcDbBlockBegin
  2
spun-9mm-cap
 70
0
 10
0.0
 20
0.0
 30
0.0
  3
spun-9mm-cap
  1

  0
CIRCLE
  5
1E8
100
AcDbEntity
100
AcDbCircle
  8
Cut
 62
256
370
-1
 48
1.0
  6
BYLAYER
 10
0.0
 20
6.5
 30
0.0
 40
5.0
  0
CIRCLE
  5
1E9
100
AcDbEntity
100
AcDbCircle
  8
Helpers
 62
256
370
-1
 48
1.0
  6
BYLAYER
 10
0.0
 20
6.5
 30
0.0
 40
4.5
  0
ENDBLK
  5
1EA
100
AcDbEntity
  8
0
100
AcDbBlockEnd
  0
BLOCK
  5
1EB
100
AcDbEntity
  8
0
100
AcDbBlockBegin
  2
Switchcraft 712RA
 70
0
 10
0.0
 20
0.0
 30
0.0
  3
Switchcraft 712RA
  1

  0
CIRCLE
  5
1EC
100
AcDbEntity
100
AcDbCircle
  8
Cut
 62
256
370
-1
 48
1.0
  6
BYLAYER
 10
0.0000000000000005
 20
8.3819999999999997
 30
0.0
 40
4.0999999999999996
  0
CIRCLE
  5
1ED
100
AcDbEntity
100
AcDbCircle
  8
Helpers
 62
256
370
-1
 48
1.0
  6
BYLAYER
 10
0.0000000000000005
 20
8.3819999999999997
 30
0.0
 40
5.5
  0
ENDBLK
  5
1EE
100
AcDbEntity
  8
0
100
AcDbBlockEnd
  0
BLOCK
  5
1EF
100
AcDbEntity
  8
0
100
AcDbBlockBegin
  2
Keystone 7762
 70
0
 10
0.0
 20
0.0
 30
0.0
  3
Keystone 7762
  1

  0
CIRCLE
  5
1F0
100
AcDbEntity
100
AcDbCircle
  8
Cut
 62
256
370
-1
 48
1.0
  6
BYLAYER
 10
0.0000000000000003
 20
4.3650000000000002
 30
0.0
 40
1.6000000000000001
  0
CIRCLE
  5
1F1
100
AcDbEntity
100
AcDbCircle
  8
Helpers
 62
256
370
-1
 48
1.0
  6
BYLAYER
 10
0.0000000000000003
 20
4.3650000000000002
 30
0.0
 40
3.5
  0
ENDBLK
  5
1F2
100
AcDbEntity
  8
0
100
AcDbBlockEnd
  0
ENDSEC
  0
SECTION
  2
ENTITIES
  0
INSERT
  5
1F3
100
AcDbEntity
100
AcDbBlockReference
  8
0
 62
256
370
-1
 48
1.0
  6
BYLAYER
  2
b2-panel
 10
0.0
 20
0.0
 30
0.0
  0
LINE
  5
1F4
100
AcDbEntity
100
AcDbLine
  8
Guide Panel
 62
256
370
-1
 48
1.0
  6
BYLAYER
 10
40.0
 20
-0.9999999999999988
 30
0.0
 11
40.0
 21
31.0
 31
0.0
  0
LINE
  5
1F5
100
AcDbEntity
100
AcDbLine
  8
Guide Panel
 62
256
370
-1
 48
1.0
  6
BYLAYER
 10
-16.0
 20
-0.9999999999999919
 30
0.0
 11
-16.0
 21
31.0000000000000071
 31
0.0
  0
LINE
  5
1F6
100
AcDbEntity
100
AcDbLine
  8
Guide Panel
 62
256
370
-1
 48
1.0
  6
BYLAYER
 10
-35.0
 20
-0.9999999999999896
 30
0.0
 11
-35.0
 21
31.0000000000000107
 31
0.0
  0
INSERT
  5
1F7
100
AcDbEntity
100
AcDbBlockReference
  8
Guide Panel
 62
256
370
-1
 48
1.0
  6
BYLAYER
  2
Amphenol ACJS-HDR
 10
-35.0
 20
9.599999999999989
 30
0.0
  0
INSERT
  5
1F8
100
AcDbEntity
100
AcDbBlockReference
  8
Guide Panel
 62
256
370
-1
 48
1.0
  6
BYLAYER
  2
Amphenol ACJS-HDR
 10
-16.0
 20
9.599999999999989
 30
0.0
  0
INSERT
  5
1F9
100
AcDbEntity
100
AcDbBlockReference
  8
Guide Panel
 62
256
370
-1
 48
1.0
  6
BYLAYER
  2
Switchcraft 712RA
 10
40.0
 20
9.599999999999989
 30
0.0
  0
TEXT
  5
1FA
100
AcDbEntity
100
AcDbText
  8
Engrave
 62
256
370
-1
 48
1.0
  6
BYLAYER
 10
0.0
 20
0.0
 30
0.0
 40
2.0
  1
Left
 50
0.0
 41
1.0
  7
textstyle4
 71
0
 72
1
 11
-35.0
 21
7.0
 31
0.0
100
AcDbText
 73
2
  0
TEXT
  5
1FB
100
AcDbEntity
100
AcDbText
  8
Engrave
 62
256
370
-1
 48
1.0
  6
BYLAYER
 10
0.0
 20
0.0
 30
0.0
 40
2.0
  1
Right
 50
0.0
 41
1.0
  7
textstyle5
 71
0
 72
1
 11
-16.0
 21
7.0
 31
0.0
100
AcDbText
 73
2
  0
TEXT
  5
1FC
100
AcDbEntity
100
AcDbText
  8
Engrave
 62
256
370
-1
 48
1.0
  6
BYLAYER
 10
0.0
 20
0.0
 30
0.0
 40
2.0
  1
12V
 50
0.0
 41
1.0
  7
textstyle6
 71
0
 72
1
 11
40.0
 21
7.0
 31
0.0
100
AcDbText
 73
2
  0
TEXT
  5
1FD
100
AcDbEntity
100
AcDbText
  8
Engrave
 62
256
370
-1
 48
1.0
  6
BYLAYER
 10
0.0
 20
0.0
 30
0.0
 40
2.0
  1
DC In
 50
0.0
 41
1.0
  7
textstyle7
 71
0
 72
1
 11
40.0
 21
10.0
 31
0.0
100
AcDbText
 73
2
  0
ENDSEC
  0
SECTION
  2
OBJECTS
  0
DICTIONARY
  5
C
100
AcDbDictionary
280
0
281
1
  3
ACAD_GROUP
350
D
  3
ACAD_LAYOUT
350
1A
  3
ACAD_MLINESTYLE
350
17
  3
ACAD_PLOTSETTINGS
350
19
  3
ACAD_PLOTSTYLENAME
350
E
  3
AcDbVariableDictionary
350
1FE
  3
QCAD_OBJECTS
350
1FF
  0
DICTIONARY
  5
D
100
AcDbDictionary
280
0
281
1
  0
ACDBDICTIONARYWDFLT
  5
E
100
AcDbDictionary
281
1
  3
Normal
350
F
100
AcDbDictionaryWithDefault
340
F
  0
ACDBPLACEHOLDER
  5
F
  0
DICTIONARY
  5
17
100
AcDbDictionary
280
0
281
1
  3
Standard
350
18
  0
MLINESTYLE
  5
18
100
AcDbMlineStyle
  2
STANDARD
 70
0
  3

 62
256
 51
90.0
 52
90.0
 71
2
 49
0.5
 62
256
  6
BYLAYER
 49
-0.5
 62
256
  6
BYLAYER
  0
DICTIONARY
  5
19
100
AcDbDictionary
280
0
281
1
  0
DICTIONARY
  5
1A
100
AcDbDictionary
281
1
  3
Layout1
350
1E
  3
Layout2
350
26
  3
Model
350
22
  0
LAYOUT
  5
1E
100
AcDbPlotSettings
  1

  2
none_device
  4

  6

 40
0.0
 41
0.0
 42
0.0
 43
0.0
 44
0.0
 45
0.0
 46
0.0
 47
0.0
 48
0.0
 49
0.0
140
0.0
141
0.0
142
1.0
143
1.0
 70
688
 72
0
 73
0
 74
5
  7

 75
16
147
1.0
148
0.0
149
0.0
100
AcDbLayout
  1
Layout1
 70
1
 71
1
 10
0.0
 20
0.0
 11
420.0
 21
297.0
 12
0.0
 22
0.0
 32
0.0
 14
100000000000000000000.0
 24
100000000000000000000.0
 34
100000000000000000000.0
 15
-100000000000000000000.0
 25
-100000000000000000000.0
 35
-100000000000000000000.0
146
0.0
 13
0.0
 23
0.0
 33
0.0
 16
1.0
 26
0.0
 36
0.0
 17
0.0
 27
1.0
 37
0.0
 76
0
330
1B
  0
LAYOUT
  5
22
100
AcDbPlotSettings
  1

  2
none_device
  4

  6

 40
0.0
 41
0.0
 42
0.0
 43
0.0
 44
0.0
 45
0.0
 46
0.0
 47
0.0
 48
0.0
 49
0.0
140
0.0
141
0.0
142
1.0
143
1.0
 70
1712
 72
0
 73
0
 74
0
  7

 75
0
147
1.0
148
0.0
149
0.0
100
AcDbLayout
  1
Model
 70
1
 71
0
 10
0.0
 20
0.0
 11
12.0
 21
9.0
 12
0.0
 22
0.0
 32
0.0
 14
0.0
 24
0.0
 34
0.0
 15
0.0
 25
0.0
 35
0.0
146
0.0
 13
0.0
 23
0.0
 33
0.0
 16
1.0
 26
0.0
 36
0.0
 17
0.0
 27
1.0
 37
0.0
 76
0
330
1F
  0
LAYOUT
  5
26
100
AcDbPlotSettings
  1

  2
none_device
  4

  6

 40
0.0
 41
0.0
 42
0.0
 43
0.0
 44
0.0
 45
0.0
 46
0.0
 47
0.0
 48
0.0
 49
0.0
140
0.0
141
0.0
142
1.0
143
1.0
 70
688
 72
0
 73
0
 74
5
  7

 75
16
147
1.0
148
0.0
149
0.0
100
AcDbLayout
  1
Layout2
 70
1
 71
2
 10
0.0
 20
0.0
 11
12.0
 21
9.0
 12
0.0
 22
0.0
 32
0.0
 14
0.0
 24
0.0
 34
0.0
 15
0.0
 25
0.0
 35
0.0
146
0.0
 13
0.0
 23
0.0
 33
0.0
 16
1.0
 26
0.0
 36
0.0
 17
0.0
 27
1.0
 37
0.0
 76
0
330
23
  0
DICTIONARY
  5
1FE
100
AcDbDictionary
281
1
  3
DIMASSOC
350
201
  3
HIDETEXT
350
200
  0
DICTIONARYVAR
  5
200
100
DictionaryVariables
280
0
  1
2
  0
DICTIONARYVAR
  5
201
100
DictionaryVariables
280
0
  1
1
  0
DICTIONARY
  5
1FF
100
AcDbDictionary
281
1
  3
ColorSettings/BackgroundColor
350
202
  3
ColorSettings/ColorMode
350
203
  3
Grid/DisplayGrid00
350
204
  3
Grid/DisplayGrid01
350
205
  3
Grid/DisplayGrid02
350
206
  3
Grid/DisplayGrid03
350
207
  3
Grid/GridSpacingX00
350
208
  3
Grid/GridSpacingX01
350
209
  3
Grid/GridSpacingX02
350
20A
  3
Grid/GridSpacingX03
350
20B
  3
Grid/GridSpacingY00
350
20C
  3
Grid/GridSpacingY01
350
20D
  3
Grid/GridSpacingY02
350
20E
  3
Grid/GridSpacingY03
350
20F
  3
Grid/IsometricGrid00
350
210
  3
Grid/IsometricGrid01
350
211
  3
Grid/IsometricGrid02
350
212
  3
Grid/IsometricGrid03
350
213
  3
Grid/IsometricProjection00
350
214
  3
Grid/IsometricProjection01
350
215
  3
Grid/IsometricProjection02
350
216
  3
Grid/IsometricProjection03
350
217
  3
Grid/MetaGridSpacingX00
350
218
  3
Grid/MetaGridSpacingX01
350
219
  3
Grid/MetaGridSpacingX02
350
21A
  3
Grid/MetaGridSpacingX03
350
21B
  3
Grid/MetaGridSpacingY00
350
21C
  3
Grid/MetaGridSpacingY01
350
21D
  3
Grid/MetaGridSpacingY02
350
21E
  3
Grid/MetaGridSpacingY03
350
21F
  3
MultiPageSettings/Columns
350
220
  3
MultiPageSettings/GlueMarginsBottom
350
221
  3
MultiPageSettings/GlueMarginsLeft
350
222
  3
MultiPageSettings/GlueMarginsRight
350
223
  3
MultiPageSettings/GlueMarginsTop
350
224
  3
MultiPageSettings/PrintCropMarks
350
225
  3
MultiPageSettings/Rows
350
226
  3
PageSettings/OffsetX
350
227
  3
PageSettings/OffsetY
350
228
  3
PageSettings/PageOrientation
350
229
  3
PageSettings/PaperHeight
350
22A
  3
PageSettings/PaperWidth
350
22B
  3
PageSettings/Scale
350
22C
  3
PageSettings/ShowPaperBorders
350
22D
  3
QCADVersion
350
22E
  3
UnitSettings/PaperUnit
350
22F
  3
ViewportCenter
350
230
  3
ViewportHeight
350
231
  3
ViewportWidth
350
232
  0
XRECORD
  5
202
330
1FF
100
AcDbXrecord
280
1
1000
White
  0
XRECORD
  5
203
330
1FF
100
AcDbXrecord
280
1
1000
FullColor
  0
XRECORD
  5
204
330
1FF
100
AcDbXrecord
280
1
290
1
  0
XRECORD
  5
205
330
1FF
100
AcDbXrecord
280
1
290
1
  0
XRECORD
  5
206
330
1FF
100
AcDbXrecord
280
1
290
1
  0
XRECORD
  5
207
330
1FF
100
AcDbXrecord
280
1
290
1
  0
XRECORD
  5
208
330
1FF
100
AcDbXrecord
280
1
1000
auto
  0
XRECORD
  5
209
330
1FF
100
AcDbXrecord
280
1
1000
auto
  0
XRECORD
  5
20A
330
1FF
100
AcDbXrecord
280
1
1000
auto
  0
XRECORD
  5
20B
330
1FF
100
AcDbXrecord
280
1
1000
auto
  0
XRECORD
  5
20C
330
1FF
100
AcDbXrecord
280
1
1000
auto
  0
XRECORD
  5
20D
330
1FF
100
AcDbXrecord
280
1
1000
auto
  0
XRECORD
  5
20E
330
1FF
100
AcDbXrecord
280
1
1000
auto
  0
XRECORD
  5
20F
330
1FF
100
AcDbXrecord
280
1
1000
auto
  0
XRECORD
  5
210
330
1FF
100
AcDbXrecord
280
1
290
0
  0
XRECORD
  5
211
330
1FF
100
AcDbXrecord
280
1
290
0
  0
XRECORD
  5
212
330
1FF
100
AcDbXrecord
280
1
290
0
  0
XRECORD
  5
213
330
1FF
100
AcDbXrecord
280
1
290
0
  0
XRECORD
  5
214
330
1FF
100
AcDbXrecord
280
1
 90
0
  0
XRECORD
  5
215
330
1FF
100
AcDbXrecord
280
1
 90
0
  0
XRECORD
  5
216
330
1FF
100
AcDbXrecord
280
1
 90
0
  0
XRECORD
  5
217
330
1FF
100
AcDbXrecord
280
1
 90
0
  0
XRECORD
  5
218
330
1FF
100
AcDbXrecord
280
1
1000
auto
  0
XRECORD
  5
219
330
1FF
100
AcDbXrecord
280
1
1000
auto
  0
XRECORD
  5
21A
330
1FF
100
AcDbXrecord
280
1
1000
auto
  0
XRECORD
  5
21B
330
1FF
100
AcDbXrecord
280
1
1000
auto
  0
XRECORD
  5
21C
330
1FF
100
AcDbXrecord
280
1
1000
auto
  0
XRECORD
  5
21D
330
1FF
100
AcDbXrecord
280
1
1000
auto
  0
XRECORD
  5
21E
330
1FF
100
AcDbXrecord
280
1
1000
auto
  0
XRECORD
  5
21F
330
1FF
100
AcDbXrecord
280
1
1000
auto
  0
XRECORD
  5
220
330
1FF
100
AcDbXrecord
280
1
 90
1
  0
XRECORD
  5
221
330
1FF
100
AcDbXrecord
280
1
 40
10.0
  0
XRECORD
  5
222
330
1FF
100
AcDbXrecord
280
1
 40
10.0
  0
XRECORD
  5
223
330
1FF
100
AcDbXrecord
280
1
 40
10.0
  0
XRECORD
  5
224
330
1FF
100
AcDbXrecord
280
1
 40
10.0
  0
XRECORD
  5
225
330
1FF
100
AcDbXrecord
280
1
290
0
  0
XRECORD
  5
226
330
1FF
100
AcDbXrecord
280
1
 90
1
  0
XRECORD
  5
227
330
1FF
100
AcDbXrecord
280
1
 40
0.0
  0
XRECORD
  5
228
330
1FF
100
AcDbXrecord
280
1
 40
0.0
  0
XRECORD
  5
229
330
1FF
100
AcDbXrecord
280
1
1000
Portrait
  0
XRECORD
  5
22A
330
1FF
100
AcDbXrecord
280
1
 40
297.0
  0
XRECORD
  5
22B
330
1FF
100
AcDbXrecord
280
1
 40
210.0
  0
XRECORD
  5
22C
330
1FF
100
AcDbXrecord
280
1
1000
1:1
  0
XRECORD
  5
22D
330
1FF
100
AcDbXrecord
280
1
290
1
  0
XRECORD
  5
22E
330
1FF
100
AcDbXrecord
280
1
1000
3.15.2
  0
XRECORD
  5
22F
330
1FF
100
AcDbXrecord
280
1
 90
4
  0
XRECORD
  5
231
330
1FF
100
AcDbXrecord
280
1
 40
121.3919999999999675
  0
XRECORD
  5
232
330
1FF
100
AcDbXrecord
280
1
 40
204.1919999999999504
  0
ENDSEC
  0
EOF
